_Griffith_Gothic-Regular_WebTT.ufo
<glyph name="exclam" format="1">
  <advance width="516.096"/>
  <unicode hex="0021"/>
  <outline>
    <contour>
      <point x="258" y="219" type="qcurve" smooth="yes"/>
      <point x="308.746268657" y="219.0"/>
      <point x="375.0" y="152.746268657"/>
      <point x="375" y="102" type="qcurve" smooth="yes"/>
      <point x="375.0" y="53.4925373134"/>
      <point x="308.746268657" y="-14.0"/>
      <point x="258" y="-14" type="qcurve" smooth="yes"/>
      <point x="207.253731343" y="-14.0"/>
      <point x="139.0" y="53.4925373134"/>
      <point x="139" y="102" type="qcurve" smooth="yes"/>
      <point x="139.0" y="152.746268657"/>
      <point x="207.253731343" y="219.0"/>
    </contour>
    <contour>
      <point x="147" y="1475" type="line"/>
      <point x="369" y="1475" type="line"/>
      <point x="307" y="438" type="line"/>
      <point x="209" y="438" type="line"/>
    </contour>
  </outline>
</glyph>
<glyph name="percent" format="1">
  <advance width="1748.992"/>
  <unicode hex="0025"/>
  <outline>
    <contour>
      <point x="412" y="1489" type="qcurve" smooth="yes"/>
      <point x="558.268656716" y="1489.0"/>
      <point x="756.0" y="1271.56716418"/>
      <point x="756" y="1085" type="qcurve" smooth="yes"/>
      <point x="756.0" y="900.671641791"/>
      <point x="554.268656716" y="682.0"/>
      <point x="408" y="682" type="qcurve" smooth="yes"/>
      <point x="260.985074627" y="682.0"/>
      <point x="66.0" y="899.179104478"/>
      <point x="66" y="1085" type="qcurve" smooth="yes"/>
      <point x="66.0" y="1268.58208955"/>
      <point x="264.985074627" y="1489.0"/>
    </contour>
    <contour>
      <point x="410" y="799" type="qcurve" smooth="yes"/>
      <point x="503.28358209" y="799.0"/>
      <point x="608.0" y="951.656716418"/>
      <point x="608" y="1083" type="qcurve" smooth="yes"/>
      <point x="608.0" y="1212.85074627"/>
      <point x="504.776119403" y="1372.0"/>
      <point x="410" y="1372" type="qcurve" smooth="yes"/>
      <point x="316.71641791" y="1372.0"/>
      <point x="211.0" y="1217.59701493"/>
      <point x="211" y="1087" type="qcurve" smooth="yes"/>
      <point x="211.0" y="955.656716418"/>
      <point x="316.71641791" y="799.0"/>
    </contour>
    <contour>
      <point x="1343" y="793" type="qcurve" smooth="yes"/>
      <point x="1490.01492537" y="793.0"/>
      <point x="1686.0" y="575.567164179"/>
      <point x="1686" y="389" type="qcurve" smooth="yes"/>
      <point x="1686.0" y="205.417910448"/>
      <point x="1486.01492537" y="-14.0"/>
      <point x="1339" y="-14" type="qcurve" smooth="yes"/>
      <point x="1191.23880597" y="-14.0"/>
      <point x="995.0" y="202.432835821"/>
      <point x="995" y="389" type="qcurve" smooth="yes"/>
      <point x="995.0" y="574.074626866"/>
      <point x="1195.23880597" y="793.0"/>
    </contour>
    <contour>
      <point x="1341" y="102" type="qcurve" smooth="yes"/>
      <point x="1432.79104478" y="102.0"/>
      <point x="1540.0" y="257.149253731"/>
      <point x="1540" y="387" type="qcurve" smooth="yes"/>
      <point x="1540.0" y="518.343283582"/>
      <point x="1434.28358209" y="676.0"/>
      <point x="1341" y="676" type="qcurve" smooth="yes"/>
      <point x="1246.2238806" y="676.0"/>
      <point x="1141.0" y="522.343283582"/>
      <point x="1141" y="391" type="qcurve" smooth="yes"/>
      <point x="1141.0" y="261.149253731"/>
      <point x="1246.2238806" y="102.0"/>
    </contour>
    <contour>
      <point x="1245" y="1475" type="line"/>
      <point x="1407" y="1475" type="line"/>
      <point x="922" y="717" type="line"/>
      <point x="506" y="0" type="line"/>
      <point x="342" y="0" type="line"/>
      <point x="829" y="758" type="line"/>
    </contour>
  </outline>
</glyph>
<glyph name="parenleft" format="1">
  <advance width="673.792"/>
  <unicode hex="0028"/>
  <outline>
    <contour>
      <point x="299" y="655" type="qcurve" smooth="yes"/>
      <point x="299.0" y="404.253731343"/>
      <point x="465.253731343" y="-12.9104477612"/>
      <point x="616" y="-195" type="qcurve"/>
      <point x="459" y="-195" type="line"/>
      <point x="320.940298507" y="-46.4925373134"/>
      <point x="109.0" y="372.164179104"/>
      <point x="109" y="655" type="qcurve" smooth="yes"/>
      <point x="109.0" y="937.835820896"/>
      <point x="320.940298507" y="1357.23880597"/>
      <point x="459" y="1505" type="qcurve"/>
      <point x="616" y="1505" type="line"/>
      <point x="465.253731343" y="1323.65671642"/>
      <point x="299.0" y="905.746268657"/>
    </contour>
  </outline>
</glyph>
<glyph name="plus" format="1">
  <advance width="1228.8"/>
  <unicode hex="002B"/>
  <outline>
    <contour>
      <point x="1139" y="805" type="line"/>
      <point x="1139" y="649" type="line"/>
      <point x="694" y="649" type="line"/>
      <point x="694" y="203" type="line"/>
      <point x="535" y="203" type="line"/>
      <point x="535" y="649" type="line"/>
      <point x="90" y="649" type="line"/>
      <point x="90" y="805" type="line"/>
      <point x="535" y="805" type="line"/>
      <point x="535" y="1251" type="line"/>
      <point x="694" y="1251" type="line"/>
      <point x="694" y="805" type="line"/>
    </contour>
  </outline>
</glyph>
<glyph name="comma" format="1">
  <advance width="405.504"/>
  <unicode hex="002C"/>
  <outline>
    <contour>
      <point x="127" y="231" type="line"/>
      <point x="328" y="231" type="line"/>
      <point x="168" y="-242" type="line"/>
      <point x="61" y="-242" type="line"/>
    </contour>
  </outline>
</glyph>
<glyph name="hyphen" format="1">
  <advance width="657.408"/>
  <unicode hex="002D"/>
  <unicode hex="2010"/>
  <unicode hex="2011"/>
  <outline>
    <contour>
      <point x="578" y="659" type="line"/>
      <point x="578" y="498" type="line"/>
      <point x="82" y="498" type="line"/>
      <point x="82" y="659" type="line"/>
    </contour>
  </outline>
</glyph>
<glyph name="period" format="1">
  <advance width="405.504"/>
  <unicode hex="002E"/>
  <outline>
    <contour>
      <point x="203" y="225" type="qcurve" smooth="yes"/>
      <point x="254.492537313" y="225.0"/>
      <point x="324.0" y="156.746268657"/>
      <point x="324" y="106" type="qcurve" smooth="yes"/>
      <point x="324.0" y="54.5074626866"/>
      <point x="254.492537313" y="-14.0"/>
      <point x="203" y="-14" type="qcurve" smooth="yes"/>
      <point x="150.76119403" y="-14.0"/>
      <point x="82.0" y="54.5074626866"/>
      <point x="82" y="106" type="qcurve" smooth="yes"/>
      <point x="82.0" y="156.746268657"/>
      <point x="150.76119403" y="225.0"/>
    </contour>
  </outline>
</glyph>
<glyph name="zero" format="1">
  <advance width="1232.896"/>
  <unicode hex="0030"/>
  <outline>
    <contour>
      <point x="1133" y="768" type="qcurve" smooth="yes"/>
      <point x="1133" y="709" type="line" smooth="yes"/>
      <point x="1133.0" y="370.940298507"/>
      <point x="854.805970149" y="-25.0"/>
      <point x="616" y="-25" type="qcurve" smooth="yes"/>
      <point x="377.940298507" y="-25.0"/>
      <point x="98.0" y="368.940298507"/>
      <point x="98" y="707" type="qcurve" smooth="yes"/>
      <point x="98" y="766" type="line" smooth="yes"/>
      <point x="98.0" y="1104.05970149"/>
      <point x="377.940298507" y="1499.0"/>
      <point x="616" y="1499" type="qcurve" smooth="yes"/>
      <point x="854.805970149" y="1499.0"/>
      <point x="1133.0" y="1106.05970149"/>
    </contour>
    <contour>
      <point x="616" y="123" type="qcurve" smooth="yes"/>
      <point x="778.686567164" y="123.0"/>
      <point x="940.0" y="443.731343284"/>
      <point x="940" y="690" type="qcurve" smooth="yes"/>
      <point x="940" y="780" type="line" smooth="yes"/>
      <point x="940.0" y="1026.26865672"/>
      <point x="778.686567164" y="1352.0"/>
      <point x="616" y="1352" type="qcurve" smooth="yes"/>
      <point x="452.567164179" y="1352.0"/>
      <point x="293.0" y="1028.7761194"/>
      <point x="293" y="784" type="qcurve" smooth="yes"/>
      <point x="293" y="694" type="line" smooth="yes"/>
      <point x="293.0" y="448.47761194"/>
      <point x="452.567164179" y="123.0"/>
    </contour>
  </outline>
</glyph>
<glyph name="one" format="1">
  <advance width="913.408"/>
  <unicode hex="0031"/>
  <outline>
    <contour>
      <point x="866" y="125" type="line"/>
      <point x="866" y="0" type="line"/>
      <point x="100" y="0" type="line"/>
      <point x="100" y="125" type="line"/>
      <point x="395" y="125" type="line"/>
      <point x="395" y="1350" type="line"/>
      <point x="76" y="1350" type="line"/>
      <point x="76" y="1475" type="line"/>
      <point x="580" y="1475" type="line"/>
      <point x="580" y="125" type="line"/>
    </contour>
  </outline>
</glyph>
<glyph name="two" format="1">
  <advance width="1140.736"/>
  <unicode hex="0032"/>
  <outline>
    <contour>
      <point x="1034" y="141" type="line"/>
      <point x="1034" y="0" type="line"/>
      <point x="111" y="0" type="line"/>
      <point x="111" y="119" type="line"/>
      <point x="165.47761194" y="288.402985075"/>
      <point x="378.940298507" y="544.71641791"/>
      <point x="567" y="688" type="qcurve" smooth="yes"/>
      <point x="698.343283582" y="787.253731343"/>
      <point x="834.0" y="960.850746269"/>
      <point x="834" y="1081" type="qcurve" smooth="yes"/>
      <point x="834.0" y="1200.40298507"/>
      <point x="699.865671642" y="1356.0"/>
      <point x="573" y="1356" type="qcurve" smooth="yes"/>
      <point x="461.805970149" y="1356.0"/>
      <point x="308.656716418" y="1225.02985075"/>
      <point x="240" y="1081" type="qcurve"/>
      <point x="96" y="1149" type="line"/>
      <point x="174.358208955" y="1315.41791045"/>
      <point x="407.373134328" y="1499.0"/>
      <point x="582" y="1499" type="qcurve" smooth="yes"/>
      <point x="802.149253731" y="1499.0"/>
      <point x="1016.0" y="1260.13432836"/>
      <point x="1016" y="1087" type="qcurve" smooth="yes"/>
      <point x="1016.0" y="916.104477612"/>
      <point x="842.417910448" y="700.149253731"/>
      <point x="676" y="580" type="qcurve" smooth="yes"/>
      <point x="518.537313433" y="465.074626866"/>
      <point x="337.567164179" y="261.895522388"/>
      <point x="301" y="141" type="qcurve"/>
    </contour>
  </outline>
</glyph>
<glyph name="three" format="1">
  <advance width="1077.248"/>
  <unicode hex="0033"/>
  <outline>
    <contour>
      <point x="594" y="823" type="line"/>
      <point x="766.388059701" y="841.656716418"/>
      <point x="1001.0" y="686.388059701"/>
      <point x="1001" y="514" type="qcurve" smooth="yes"/>
      <point x="1001.0" y="261.76119403"/>
      <point x="454.194029851" y="-14.9850746269"/>
      <point x="43" y="-12" type="qcurve"/>
      <point x="43" y="125" type="line"/>
      <point x="393.0" y="127.985074627"/>
      <point x="815.0" y="332.895522388"/>
      <point x="815" y="512" type="qcurve" smooth="yes"/>
      <point x="815.0" y="621.701492537"/>
      <point x="681.955223881" y="729.0"/>
      <point x="573" y="729" type="qcurve" smooth="yes"/>
      <point x="510.313432836" y="729.0"/>
      <point x="415.507462687" y="711.164179104"/>
      <point x="367" y="694" type="qcurve"/>
      <point x="322" y="815" type="line"/>
      <point x="539.910447761" y="899.328358209"/>
      <point x="737.0" y="1049.32835821"/>
      <point x="737" y="1165" type="qcurve" smooth="yes"/>
      <point x="737.0" y="1252.31343284"/>
      <point x="628.507462687" y="1360.0"/>
      <point x="530" y="1360" type="qcurve" smooth="yes"/>
      <point x="443.432835821" y="1360.0"/>
      <point x="273.820895522" y="1263.55223881"/>
      <point x="188" y="1174" type="qcurve"/>
      <point x="88" y="1272" type="line"/>
      <point x="182.776119403" y="1372.74626866"/>
      <point x="408.970149254" y="1499.0"/>
      <point x="553" y="1499" type="qcurve" smooth="yes"/>
      <point x="728.373134328" y="1499.0"/>
      <point x="920.0" y="1326.8358209"/>
      <point x="920" y="1194" type="qcurve" smooth="yes"/>
      <point x="920.0" y="1065.64179104"/>
      <point x="742.985074627" y="895.925373134"/>
      <point x="590" y="831" type="qcurve"/>
    </contour>
  </outline>
</glyph>
<glyph name="four" format="1">
  <advance width="1198.08"/>
  <unicode hex="0034"/>
  <outline>
    <contour>
      <point x="1128" y="520" type="line"/>
      <point x="1128" y="403" type="line"/>
      <point x="934" y="403" type="line"/>
      <point x="934" y="0" type="line"/>
      <point x="750" y="0" type="line"/>
      <point x="750" y="403" type="line"/>
      <point x="74" y="403" type="line"/>
      <point x="74" y="561" type="line"/>
      <point x="680" y="1475" type="line"/>
      <point x="934" y="1475" type="line"/>
      <point x="934" y="520" type="line"/>
    </contour>
    <contour>
      <point x="209" y="520" type="line"/>
      <point x="750" y="520" type="line"/>
      <point x="750" y="1321" type="line"/>
      <point x="725" y="1321" type="line"/>
      <point x="209" y="545" type="line"/>
    </contour>
  </outline>
</glyph>
<glyph name="five" format="1">
  <advance width="1122.304"/>
  <unicode hex="0035"/>
  <outline>
    <contour>
      <point x="1036" y="514" type="qcurve" smooth="yes"/>
      <point x="1036" y="500" type="line" smooth="yes"/>
      <point x="1036.0" y="240.298507463"/>
      <point x="704.104477612" y="-20.0"/>
      <point x="475" y="-20" type="qcurve" smooth="yes"/>
      <point x="351.119402985" y="-20.0"/>
      <point x="170.23880597" y="19.7313432836"/>
      <point x="68" y="66" type="qcurve"/>
      <point x="119" y="207" type="line"/>
      <point x="218.253731343" y="160.731343284"/>
      <point x="376.223880597" y="127.0"/>
      <point x="471" y="127" type="qcurve" smooth="yes"/>
      <point x="641.895522388" y="127.0"/>
      <point x="846.0" y="322.865671642"/>
      <point x="846" y="496" type="qcurve" smooth="yes"/>
      <point x="846" y="504" type="line" smooth="yes"/>
      <point x="846.0" y="650.268656716"/>
      <point x="703.089552239" y="807.0"/>
      <point x="571" y="807" type="qcurve" smooth="yes"/>
      <point x="490.402985075" y="807.0"/>
      <point x="367.208955224" y="743.731343284"/>
      <point x="309" y="690" type="qcurve"/>
      <point x="141" y="690" type="line"/>
      <point x="217" y="1475" type="line"/>
      <point x="956" y="1475" type="line"/>
      <point x="956" y="1325" type="line"/>
      <point x="348" y="1325" type="line"/>
      <point x="295" y="817" type="line"/>
      <point x="311" y="817" type="line"/>
      <point x="375.179104478" y="876.701492537"/>
      <point x="517.059701493" y="946.0"/>
      <point x="629" y="946" type="qcurve" smooth="yes"/>
      <point x="810.343283582" y="946.0"/>
      <point x="1036.0" y="723.701492537"/>
    </contour>
  </outline>
</glyph>
<glyph name="six" format="1">
  <advance width="1163.264"/>
  <unicode hex="0036"/>
  <outline>
    <contour>
      <point x="664" y="928" type="qcurve" smooth="yes"/>
      <point x="846.835820896" y="928.0"/>
      <point x="1102.0" y="685.656716418"/>
      <point x="1102" y="467" type="qcurve" smooth="yes"/>
      <point x="1102.0" y="243.865671642"/>
      <point x="808.656716418" y="-25.0"/>
      <point x="590" y="-25" type="qcurve" smooth="yes"/>
      <point x="369.850746269" y="-25.0"/>
      <point x="92.0" y="244.835820896"/>
      <point x="92" y="512" type="qcurve" smooth="yes"/>
      <point x="92.0" y="762.746268657"/>
      <point x="341.865671642" y="1269.7761194"/>
      <point x="565" y="1475" type="qcurve"/>
      <point x="797" y="1475" type="line"/>
      <point x="585.805970149" y="1304.85074627"/>
      <point x="318.074626866" y="916.925373134"/>
      <point x="283" y="752" type="qcurve"/>
      <point x="297" y="752" type="line"/>
      <point x="365.656716418" y="832.597014925"/>
      <point x="538.626865672" y="928.0"/>
    </contour>
    <contour>
      <point x="596" y="109" type="qcurve" smooth="yes"/>
      <point x="733.313432836" y="109.0"/>
      <point x="918.0" y="301.029850746"/>
      <point x="918" y="457" type="qcurve" smooth="yes"/>
      <point x="918.0" y="609.985074627"/>
      <point x="752.029850746" y="795.0"/>
      <point x="608" y="795" type="qcurve" smooth="yes"/>
      <point x="461.731343284" y="795.0"/>
      <point x="276.0" y="595.298507463"/>
      <point x="276" y="455" type="qcurve" smooth="yes"/>
      <point x="276.0" y="302.014925373"/>
      <point x="455.701492537" y="109.0"/>
    </contour>
  </outline>
</glyph>
<glyph name="seven" format="1">
  <advance width="1038.336"/>
  <unicode hex="0037"/>
  <outline>
    <contour>
      <point x="1006" y="1475" type="line"/>
      <point x="1006" y="1360" type="line"/>
      <point x="813.462686567" y="1094.32835821"/>
      <point x="474.656716418" y="341.044776119"/>
      <point x="406" y="0" type="qcurve"/>
      <point x="213" y="0" type="line"/>
      <point x="292.104477612" y="352.985074627"/>
      <point x="630.880597015" y="1076.73134328"/>
      <point x="807" y="1323" type="qcurve"/>
      <point x="41" y="1323" type="line"/>
      <point x="41" y="1475" type="line"/>
    </contour>
  </outline>
</glyph>
<glyph name="eight" format="1">
  <advance width="1208.32"/>
  <unicode hex="0038"/>
  <outline>
    <contour>
      <point x="819" y="782" type="line"/>
      <point x="935.417910448" y="749.910447761"/>
      <point x="1118.0" y="561.447761194"/>
      <point x="1118" y="401" type="qcurve" smooth="yes"/>
      <point x="1118.0" y="196.52238806"/>
      <point x="807.731343284" y="-25.0"/>
      <point x="604" y="-25" type="qcurve" smooth="yes"/>
      <point x="401.014925373" y="-25.0"/>
      <point x="90.0" y="192.52238806"/>
      <point x="90" y="397" type="qcurve" smooth="yes"/>
      <point x="90.0" y="557.447761194"/>
      <point x="273.089552239" y="749.910447761"/>
      <point x="391" y="782" type="qcurve"/>
      <point x="391" y="795" type="line"/>
      <point x="288.76119403" y="827.089552239"/>
      <point x="131.0" y="988.656716418"/>
      <point x="131" y="1120" type="qcurve" smooth="yes"/>
      <point x="131.0" y="1290.14925373"/>
      <point x="404.0" y="1499.0"/>
      <point x="604" y="1499" type="qcurve" smooth="yes"/>
      <point x="804.0" y="1499.0"/>
      <point x="1077.0" y="1294.14925373"/>
      <point x="1077" y="1124" type="qcurve" smooth="yes"/>
      <point x="1077.0" y="992.656716418"/>
      <point x="918.253731343" y="828.582089552"/>
      <point x="819" y="795" type="qcurve"/>
    </contour>
    <contour>
      <point x="604" y="109" type="qcurve" smooth="yes"/>
      <point x="743.552238806" y="109.0"/>
      <point x="934.0" y="267.970149254"/>
      <point x="934" y="412" type="qcurve" smooth="yes"/>
      <point x="934.0" y="558.268656716"/>
      <point x="739.820895522" y="725.0"/>
      <point x="604" y="725" type="qcurve" smooth="yes"/>
      <point x="468.179104478" y="725.0"/>
      <point x="274.0" y="562.268656716"/>
      <point x="274" y="416" type="qcurve" smooth="yes"/>
      <point x="274.0" y="270.47761194"/>
      <point x="463.701492537" y="109.0"/>
    </contour>
    <contour>
      <point x="604" y="840" type="qcurve" smooth="yes"/>
      <point x="724.895522388" y="840.0"/>
      <point x="895.0" y="978.119402985"/>
      <point x="895" y="1102" type="qcurve" smooth="yes"/>
      <point x="895.0" y="1221.40298507"/>
      <point x="735.343283582" y="1366.0"/>
      <point x="604" y="1366" type="qcurve" smooth="yes"/>
      <point x="472.656716418" y="1366.0"/>
      <point x="313.0" y="1222.41791045"/>
      <point x="313" y="1106" type="qcurve" smooth="yes"/>
      <point x="313.0" y="985.104477612"/>
      <point x="483.104477612" y="840.0"/>
    </contour>
  </outline>
</glyph>
<glyph name="semicolon" format="1">
  <advance width="440.32"/>
  <unicode hex="003B"/>
  <outline>
    <contour>
      <point x="223" y="1077" type="qcurve" smooth="yes"/>
      <point x="275.23880597" y="1077.0"/>
      <point x="344.0" y="1008.23880597"/>
      <point x="344" y="956" type="qcurve" smooth="yes"/>
      <point x="344.0" y="904.507462687"/>
      <point x="275.23880597" y="836.0"/>
      <point x="223" y="836" type="qcurve" smooth="yes"/>
      <point x="171.507462687" y="836.0"/>
      <point x="102.0" y="904.507462687"/>
      <point x="102" y="956" type="qcurve" smooth="yes"/>
      <point x="102.0" y="1008.23880597"/>
      <point x="171.507462687" y="1077.0"/>
    </contour>
    <contour>
      <point x="127" y="231" type="line"/>
      <point x="328" y="231" type="line"/>
      <point x="168" y="-242" type="line"/>
      <point x="61" y="-242" type="line"/>
    </contour>
  </outline>
</glyph>
<glyph name="greater" format="1">
  <advance width="1228.8"/>
  <unicode hex="003E"/>
  <outline>
    <contour>
      <point x="1133" y="805" type="line"/>
      <point x="1133" y="649" type="line"/>
      <point x="111" y="195" type="line"/>
      <point x="111" y="360" type="line"/>
      <point x="956" y="727" type="line"/>
      <point x="111" y="1094" type="line"/>
      <point x="111" y="1260" type="line"/>
    </contour>
  </outline>
</glyph>
<glyph name="at" format="1">
  <advance width="2050.048"/>
  <unicode hex="0040"/>
  <outline>
    <contour>
      <point x="1067" y="1499" type="qcurve" smooth="yes"/>
      <point x="1431.92537313" y="1499.0"/>
      <point x="1935.0" y="1050.65671642"/>
      <point x="1935" y="682" type="qcurve" smooth="yes"/>
      <point x="1935.0" y="405.134328358"/>
      <point x="1641.07462687" y="59.0"/>
      <point x="1456" y="59" type="qcurve" smooth="yes"/>
      <point x="1333.6119403" y="59.0"/>
      <point x="1206.95522388" y="195.805970149"/>
      <point x="1198" y="307" type="qcurve"/>
      <point x="1188" y="307" type="line"/>
      <point x="1119.34328358" y="191.328358209"/>
      <point x="944.776119403" y="59.0"/>
      <point x="850" y="59" type="qcurve" smooth="yes"/>
      <point x="730.597014925" y="59.0"/>
      <point x="586.0" y="243.313432836"/>
      <point x="586" y="406" type="qcurve" smooth="yes"/>
      <point x="586.0" y="648.537313433"/>
      <point x="808.134328358" y="1055.0"/>
      <point x="985" y="1055" type="qcurve" smooth="yes"/>
      <point x="1093.20895522" y="1055.0"/>
      <point x="1215.92537313" y="919.23880597"/>
      <point x="1251" y="817" type="qcurve"/>
      <point x="1260" y="815" type="line"/>
      <point x="1300" y="1053" type="line"/>
      <point x="1458" y="1012" type="line"/>
      <point x="1348" y="389" type="line" smooth="yes"/>
      <point x="1329.34328358" y="285.268656716"/>
      <point x="1400.25373134" y="137.0"/>
      <point x="1501" y="137" type="qcurve" smooth="yes"/>
      <point x="1633.8358209" y="137.0"/>
      <point x="1853.0" y="445.910447761"/>
      <point x="1853" y="678" type="qcurve" smooth="yes"/>
      <point x="1853.0" y="1023.52238806"/>
      <point x="1408.01492537" y="1430.0"/>
      <point x="1061" y="1430" type="qcurve" smooth="yes"/>
      <point x="698.313432836" y="1430.0"/>
      <point x="199.0" y="912.910447761"/>
      <point x="199" y="545" type="qcurve" smooth="yes"/>
      <point x="199.0" y="156.940298507"/>
      <point x="663.641791045" y="-324.0"/>
      <point x="1042" y="-324" type="qcurve" smooth="yes"/>
      <point x="1227.07462687" y="-324.0"/>
      <point x="1510.94029851" y="-248.626865672"/>
      <point x="1649" y="-174" type="qcurve"/>
      <point x="1683" y="-233" type="line"/>
      <point x="1541.20895522" y="-309.865671642"/>
      <point x="1237.25373134" y="-393.0"/>
      <point x="1038" y="-393" type="qcurve" smooth="yes"/>
      <point x="625.313432836" y="-393.0"/>
      <point x="117.0" y="122.850746269"/>
      <point x="117" y="543" type="qcurve" smooth="yes"/>
      <point x="117.0" y="945.985074627"/>
      <point x="678.940298507" y="1499.0"/>
    </contour>
    <contour>
      <point x="920" y="168" type="qcurve" smooth="yes"/>
      <point x="1035.67164179" y="168.0"/>
      <point x="1229.0" y="483.119402985"/>
      <point x="1229" y="657" type="qcurve" smooth="yes"/>
      <point x="1229.0" y="761.47761194"/>
      <point x="1122.29850746" y="936.0"/>
      <point x="1032" y="936" type="qcurve" smooth="yes"/>
      <point x="914.089552239" y="936.0"/>
      <point x="752.0" y="631.671641791"/>
      <point x="752" y="416" type="qcurve" smooth="yes"/>
      <point x="752.0" y="304.059701493"/>
      <point x="838.656716418" y="168.0"/>
    </contour>
  </outline>
</glyph>
<glyph name="A" format="1">
  <advance width="1374.208"/>
  <unicode hex="0041"/>
  <outline>
    <contour>
      <point x="815" y="1481" type="line"/>
      <point x="1323" y="0" type="line"/>
      <point x="1128" y="0" type="line"/>
      <point x="1004" y="379" type="line"/>
      <point x="365" y="379" type="line"/>
      <point x="240" y="0" type="line"/>
      <point x="51" y="0" type="line"/>
      <point x="559" y="1481" type="line"/>
    </contour>
    <contour>
      <point x="401" y="512" type="line"/>
      <point x="967" y="512" type="line"/>
      <point x="692" y="1335" type="line"/>
      <point x="676" y="1335" type="line"/>
    </contour>
  </outline>
</glyph>
<glyph name="B" format="1">
  <advance width="1257.472"/>
  <unicode hex="0042"/>
  <outline>
    <contour>
      <point x="856" y="788" type="line"/>
      <point x="1000.02985075" y="754.417910448"/>
      <point x="1178.0" y="576.417910448"/>
      <point x="1178" y="410" type="qcurve" smooth="yes"/>
      <point x="1178.0" y="212.23880597"/>
      <point x="889.641791045" y="0.0"/>
      <point x="668" y="0" type="qcurve" smooth="yes"/>
      <point x="160" y="0" type="line"/>
      <point x="160" y="1475" type="line"/>
      <point x="676" y="1475" type="line" smooth="yes"/>
      <point x="880.47761194" y="1475.0"/>
      <point x="1120.0" y="1286.41791045"/>
      <point x="1120" y="1120" type="qcurve" smooth="yes"/>
      <point x="1120.0" y="975.223880597"/>
      <point x="956.746268657" y="826.104477612"/>
      <point x="856" y="797" type="qcurve"/>
    </contour>
    <contour>
      <point x="643" y="141" type="line" smooth="yes"/>
      <point x="798.970149254" y="141.0"/>
      <point x="991.0" y="277.970149254"/>
      <point x="991" y="422" type="qcurve" smooth="yes"/>
      <point x="991.0" y="565.28358209"/>
      <point x="820.104477612" y="721.0"/>
      <point x="641" y="721" type="qcurve" smooth="yes"/>
      <point x="342" y="721" type="line"/>
      <point x="342" y="141" type="line"/>
    </contour>
    <contour>
      <point x="639" y="852" type="line" smooth="yes"/>
      <point x="774.820895522" y="852.0"/>
      <point x="934.0" y="974.626865672"/>
      <point x="934" y="1100" type="qcurve" smooth="yes"/>
      <point x="934.0" y="1214.17910448"/>
      <point x="783.328358209" y="1333.0"/>
      <point x="649" y="1333" type="qcurve" smooth="yes"/>
      <point x="342" y="1333" type="line"/>
      <point x="342" y="852" type="line"/>
    </contour>
  </outline>
</glyph>
<glyph name="D" format="1">
  <advance width="1282.048"/>
  <unicode hex="0044"/>
  <outline>
    <contour>
      <point x="1182" y="756" type="qcurve" smooth="yes"/>
      <point x="1182" y="721" type="line" smooth="yes"/>
      <point x="1182.0" y="378.462686567"/>
      <point x="844.76119403" y="0.0"/>
      <point x="547" y="0" type="qcurve" smooth="yes"/>
      <point x="160" y="0" type="line"/>
      <point x="160" y="1475" type="line"/>
      <point x="553" y="1475" type="line" smooth="yes"/>
      <point x="853.746268657" y="1475.0"/>
      <point x="1182.0" y="1096.29850746"/>
    </contour>
    <contour>
      <point x="549" y="147" type="line" smooth="yes"/>
      <point x="754.970149254" y="147.0"/>
      <point x="985.0" y="434.611940299"/>
      <point x="985" y="707" type="qcurve" smooth="yes"/>
      <point x="985" y="766" type="line" smooth="yes"/>
      <point x="985.0" y="1039.88059701"/>
      <point x="757.417910448" y="1327.0"/>
      <point x="541" y="1327" type="qcurve" smooth="yes"/>
      <point x="348" y="1327" type="line"/>
      <point x="348" y="147" type="line"/>
    </contour>
  </outline>
</glyph>
<glyph name="G" format="1">
  <advance width="1282.048"/>
  <unicode hex="0047"/>
  <outline>
    <contour>
      <point x="1169" y="692" type="line"/>
      <point x="1169" y="-2" type="line"/>
      <point x="1077" y="-2" type="line"/>
      <point x="1059" y="393" type="line"/>
      <point x="1049" y="393" type="line"/>
      <point x="999.746268657" y="201.955223881"/>
      <point x="797.104477612" y="-25.0"/>
      <point x="618" y="-25" type="qcurve" smooth="yes"/>
      <point x="379.940298507" y="-25.0"/>
      <point x="100.0" y="371.955223881"/>
      <point x="100" y="713" type="qcurve" smooth="yes"/>
      <point x="100" y="758" type="line" smooth="yes"/>
      <point x="100.0" y="1100.53731343"/>
      <point x="390.223880597" y="1499.0"/>
      <point x="635" y="1499" type="qcurve" smooth="yes"/>
      <point x="837.985074627" y="1499.0"/>
      <point x="1069.49253731" y="1273.85074627"/>
      <point x="1118" y="1094" type="qcurve"/>
      <point x="940" y="1042" type="line"/>
      <point x="901.940298507" y="1187.52238806"/>
      <point x="755.895522388" y="1352.0"/>
      <point x="635" y="1352" type="qcurve" smooth="yes"/>
      <point x="467.089552239" y="1352.0"/>
      <point x="297.0" y="1030.23880597"/>
      <point x="297" y="778" type="qcurve" smooth="yes"/>
      <point x="297" y="700" type="line" smooth="yes"/>
      <point x="297.0" y="443.28358209"/>
      <point x="473.059701493" y="123.0"/>
      <point x="635" y="123" type="qcurve" smooth="yes"/>
      <point x="781.268656716" y="123.0"/>
      <point x="939.358208955" y="369.373134328"/>
      <point x="961" y="594" type="qcurve"/>
      <point x="651" y="594" type="line"/>
      <point x="651" y="692" type="line"/>
    </contour>
  </outline>
</glyph>
<glyph name="J" format="1">
  <advance width="1021.952"/>
  <unicode hex="004A"/>
  <outline>
    <contour>
      <point x="877" y="1475" type="line"/>
      <point x="877" y="426" type="line" smooth="yes"/>
      <point x="877.0" y="211.820895522"/>
      <point x="661.0" y="-25.0"/>
      <point x="461" y="-25" type="qcurve" smooth="yes"/>
      <point x="269.955223881" y="-25.0"/>
      <point x="52.4626865672" y="174.820895522"/>
      <point x="45" y="389" type="qcurve"/>
      <point x="225" y="436" type="line"/>
      <point x="227.985074627" y="259.134328358"/>
      <point x="362.76119403" y="127.0"/>
      <point x="465" y="127" type="qcurve" smooth="yes"/>
      <point x="564.253731343" y="127.0"/>
      <point x="684.0" y="266.507462687"/>
      <point x="684" y="418" type="qcurve" smooth="yes"/>
      <point x="684" y="1475" type="line"/>
    </contour>
  </outline>
</glyph>
<glyph name="M" format="1">
  <advance width="1728.512"/>
  <unicode hex="004D"/>
  <outline>
    <contour>
      <point x="1569" y="1475" type="line"/>
      <point x="1569" y="0" type="line"/>
      <point x="1389" y="0" type="line"/>
      <point x="1389" y="1284" type="line"/>
      <point x="1370" y="1284" type="line"/>
      <point x="963" y="0" type="line"/>
      <point x="758" y="0" type="line"/>
      <point x="352" y="1284" type="line"/>
      <point x="334" y="1284" type="line"/>
      <point x="334" y="0" type="line"/>
      <point x="160" y="0" type="line"/>
      <point x="160" y="1475" type="line"/>
      <point x="473" y="1475" type="line"/>
      <point x="860" y="236" type="line"/>
      <point x="874" y="236" type="line"/>
      <point x="1262" y="1475" type="line"/>
    </contour>
  </outline>
</glyph>
<glyph name="Q" format="1">
  <advance width="1277.952"/>
  <unicode hex="0051"/>
  <outline>
    <contour>
      <point x="1255" y="-82" type="qcurve"/>
      <point x="1255" y="-211" type="line"/>
      <point x="1235.59701493" y="-216.970149254"/>
      <point x="1192.13432836" y="-221.0"/>
      <point x="1169" y="-221" type="qcurve" smooth="yes"/>
      <point x="1088.40298507" y="-221.0"/>
      <point x="982.0" y="-164.119402985"/>
      <point x="932" y="-88" type="qcurve" smooth="yes"/>
      <point x="856" y="25" type="line"/>
      <point x="813.462686567" y="1.86567164179"/>
      <point x="701.686567164" y="-25.0"/>
      <point x="639" y="-25" type="qcurve" smooth="yes"/>
      <point x="389.746268657" y="-25.0"/>
      <point x="100.0" y="371.955223881"/>
      <point x="100" y="713" type="qcurve" smooth="yes"/>
      <point x="100" y="758" type="line" smooth="yes"/>
      <point x="100.0" y="1100.53731343"/>
      <point x="389.746268657" y="1499.0"/>
      <point x="639" y="1499" type="qcurve" smooth="yes"/>
      <point x="889.746268657" y="1499.0"/>
      <point x="1178.0" y="1103.04477612"/>
      <point x="1178" y="762" type="qcurve" smooth="yes"/>
      <point x="1178" y="717" type="line" smooth="yes"/>
      <point x="1178.0" y="487.895522388"/>
      <point x="1054.26865672" y="177.313432836"/>
      <point x="958" y="90" type="qcurve"/>
      <point x="1032" y="-12" type="line" smooth="yes"/>
      <point x="1062.59701493" y="-53.7910447761"/>
      <point x="1128.23880597" y="-92.0"/>
      <point x="1176" y="-92" type="qcurve" smooth="yes"/>
      <point x="1193.91044776" y="-92.0"/>
      <point x="1235.59701493" y="-86.4776119403"/>
    </contour>
    <contour>
      <point x="858" y="217" type="line"/>
      <point x="920.686567164" y="287.149253731"/>
      <point x="981.0" y="534.0"/>
      <point x="981" y="684" type="qcurve" smooth="yes"/>
      <point x="981" y="774" type="line" smooth="yes"/>
      <point x="981.0" y="1027.73134328"/>
      <point x="811.388059701" y="1352.0"/>
      <point x="639" y="1352" type="qcurve" smooth="yes"/>
      <point x="466.611940299" y="1352.0"/>
      <point x="297.0" y="1030.23880597"/>
      <point x="297" y="778" type="qcurve" smooth="yes"/>
      <point x="297" y="688" type="line" smooth="yes"/>
      <point x="297.0" y="432.776119403"/>
      <point x="466.611940299" y="111.0"/>
      <point x="639" y="111" type="qcurve" smooth="yes"/>
      <point x="683.029850746" y="111.0"/>
      <point x="754.388059701" y="128.582089552"/>
      <point x="782" y="145" type="qcurve"/>
      <point x="602" y="412" type="line"/>
      <point x="678" y="461" type="line"/>
    </contour>
  </outline>
</glyph>
<glyph name="R" format="1">
  <advance width="1236.992"/>
  <unicode hex="0052"/>
  <outline>
    <contour>
      <point x="758" y="662" type="qcurve"/>
      <point x="1171" y="0" type="line"/>
      <point x="961" y="0" type="line"/>
      <point x="569" y="639" type="line"/>
      <point x="350" y="639" type="line"/>
      <point x="350" y="0" type="line"/>
      <point x="160" y="0" type="line"/>
      <point x="160" y="1475" type="line"/>
      <point x="635" y="1475" type="line" smooth="yes"/>
      <point x="864.104477612" y="1475.0"/>
      <point x="1124.0" y="1266.46268657"/>
      <point x="1124" y="1059" type="qcurve" smooth="yes"/>
      <point x="1124.0" y="888.850746269"/>
      <point x="934.865671642" y="685.880597015"/>
    </contour>
    <contour>
      <point x="616" y="776" type="line" smooth="yes"/>
      <point x="768.985074627" y="776.0"/>
      <point x="934.0" y="912.462686567"/>
      <point x="934" y="1055" type="qcurve" smooth="yes"/>
      <point x="934.0" y="1193.80597015"/>
      <point x="768.955223881" y="1333.0"/>
      <point x="610" y="1333" type="qcurve" smooth="yes"/>
      <point x="344" y="1333" type="line"/>
      <point x="344" y="776" type="line"/>
    </contour>
  </outline>
</glyph>
<glyph name="U" format="1">
  <advance width="1284.096"/>
  <unicode hex="0055"/>
  <outline>
    <contour>
      <point x="1137" y="1475" type="line"/>
      <point x="1137" y="516" type="line" smooth="yes"/>
      <point x="1137.0" y="231.671641791"/>
      <point x="855.179104478" y="-25.0"/>
      <point x="641" y="-25" type="qcurve" smooth="yes"/>
      <point x="425.328358209" y="-25.0"/>
      <point x="147.0" y="231.671641791"/>
      <point x="147" y="516" type="qcurve" smooth="yes"/>
      <point x="147" y="1475" type="line"/>
      <point x="338" y="1475" type="line"/>
      <point x="338" y="514" type="line" smooth="yes"/>
      <point x="338.0" y="309.52238806"/>
      <point x="510.194029851" y="127.0"/>
      <point x="649" y="127" type="qcurve" smooth="yes"/>
      <point x="787.059701493" y="127.0"/>
      <point x="956.0" y="302.776119403"/>
      <point x="956" y="508" type="qcurve" smooth="yes"/>
      <point x="956" y="1475" type="line"/>
    </contour>
  </outline>
</glyph>
<glyph name="V" format="1">
  <advance width="1284.096"/>
  <unicode hex="0056"/>
  <outline>
    <contour>
      <point x="1042" y="1475" type="line"/>
      <point x="1233" y="1475" type="line"/>
      <point x="752" y="-12" type="line"/>
      <point x="532" y="-12" type="line"/>
      <point x="51" y="1475" type="line"/>
      <point x="250" y="1475" type="line"/>
      <point x="641" y="186" type="line"/>
      <point x="651" y="186" type="line"/>
    </contour>
  </outline>
</glyph>
<glyph name="Z" format="1">
  <advance width="1130.496"/>
  <unicode hex="005A"/>
  <outline>
    <contour>
      <point x="1059" y="150" type="line"/>
      <point x="1059" y="0" type="line"/>
      <point x="70" y="0" type="line"/>
      <point x="70" y="131" type="line"/>
      <point x="842" y="1325" type="line"/>
      <point x="109" y="1325" type="line"/>
      <point x="109" y="1475" type="line"/>
      <point x="1059" y="1475" type="line"/>
      <point x="1059" y="1343" type="line"/>
      <point x="289" y="150" type="line"/>
    </contour>
  </outline>
</glyph>
<glyph name="backslash" format="1">
  <advance width="806.912"/>
  <unicode hex="005C"/>
  <outline>
    <contour>
      <point x="207" y="1505" type="line"/>
      <point x="834" y="-195" type="line"/>
      <point x="657" y="-195" type="line"/>
      <point x="29" y="1505" type="line"/>
    </contour>
  </outline>
</glyph>
<glyph name="underscore" format="1">
  <advance width="1024.0"/>
  <unicode hex="005F"/>
  <outline>
    <contour>
      <point x="1030" y="-86" type="line"/>
      <point x="1030" y="-184" type="line"/>
      <point x="-6" y="-184" type="line"/>
      <point x="-6" y="-86" type="line"/>
    </contour>
  </outline>
</glyph>
<glyph name="h" format="1">
  <advance width="1034.24"/>
  <unicode hex="0068"/>
  <outline>
    <contour>
      <point x="909" y="827" type="qcurve" smooth="yes"/>
      <point x="909" y="0" type="line"/>
      <point x="731" y="0" type="line"/>
      <point x="731" y="788" type="line" smooth="yes"/>
      <point x="731.0" y="866.358208955"/>
      <point x="663.671641791" y="948.0"/>
      <point x="598" y="948" type="qcurve" smooth="yes"/>
      <point x="530.835820896" y="948.0"/>
      <point x="381.895522388" y="831.71641791"/>
      <point x="311" y="725" type="qcurve"/>
      <point x="311" y="0" type="line"/>
      <point x="133" y="0" type="line"/>
      <point x="133" y="1509" type="line"/>
      <point x="311" y="1556" type="line"/>
      <point x="311" y="821" type="line"/>
      <point x="324" y="821" type="line"/>
      <point x="407.582089552" y="938.910447761"/>
      <point x="583.28358209" y="1077.0"/>
      <point x="690" y="1077" type="qcurve" smooth="yes"/>
      <point x="800.447761194" y="1077.0"/>
      <point x="909.0" y="941.925373134"/>
    </contour>
  </outline>
</glyph>
<glyph name="i" format="1">
  <advance width="477.184"/>
  <unicode hex="0069"/>
  <outline>
    <contour>
      <point x="328" y="1067" type="line"/>
      <point x="328" y="0" type="line"/>
      <point x="150" y="0" type="line"/>
      <point x="150" y="1067" type="line"/>
    </contour>
    <contour>
      <point x="344" y="1481" type="line"/>
      <point x="344" y="1290" type="line"/>
      <point x="135" y="1290" type="line"/>
      <point x="135" y="1481" type="line"/>
    </contour>
  </outline>
</glyph>
<glyph name="j" format="1">
  <advance width="477.184"/>
  <unicode hex="006A"/>
  <outline>
    <contour>
      <point x="328" y="1067" type="line"/>
      <point x="328" y="-104" type="line" smooth="yes"/>
      <point x="328.0" y="-255.492537313"/>
      <point x="188.850746269" y="-389.0"/>
      <point x="59" y="-389" type="qcurve" smooth="yes"/>
      <point x="11.9850746269" y="-389.0"/>
      <point x="-51.9104477612" y="-377.447761194"/>
      <point x="-84" y="-367" type="qcurve"/>
      <point x="-84" y="-248" type="line"/>
      <point x="-54.8955223881" y="-258.447761194"/>
      <point x="-5.08955223881" y="-268.0"/>
      <point x="27" y="-268" type="qcurve" smooth="yes"/>
      <point x="82.9701492537" y="-268.0"/>
      <point x="150.0" y="-199.089552239"/>
      <point x="150" y="-117" type="qcurve" smooth="yes"/>
      <point x="150" y="1067" type="line"/>
    </contour>
    <contour>
      <point x="344" y="1481" type="line"/>
      <point x="344" y="1290" type="line"/>
      <point x="135" y="1290" type="line"/>
      <point x="135" y="1481" type="line"/>
    </contour>
  </outline>
</glyph>
<glyph name="l" format="1">
  <advance width="477.184"/>
  <unicode hex="006C"/>
  <outline>
    <contour>
      <point x="328" y="1556" type="line"/>
      <point x="328" y="0" type="line"/>
      <point x="150" y="0" type="line"/>
      <point x="150" y="1509" type="line"/>
    </contour>
  </outline>
</glyph>
<glyph name="o" format="1">
  <advance width="1026.048"/>
  <unicode hex="006F"/>
  <outline>
    <contour>
      <point x="944" y="547" type="qcurve" smooth="yes"/>
      <point x="944" y="524" type="line" smooth="yes"/>
      <point x="944.0" y="282.955223881"/>
      <point x="712.507462687" y="-20.0"/>
      <point x="514" y="-20" type="qcurve" smooth="yes"/>
      <point x="314.0" y="-20.0"/>
      <point x="80.0" y="278.955223881"/>
      <point x="80" y="520" type="qcurve" smooth="yes"/>
      <point x="80" y="543" type="line" smooth="yes"/>
      <point x="80.0" y="784.044776119"/>
      <point x="314.0" y="1087.0"/>
      <point x="514" y="1087" type="qcurve" smooth="yes"/>
      <point x="712.507462687" y="1087.0"/>
      <point x="944.0" y="788.044776119"/>
    </contour>
    <contour>
      <point x="514" y="96" type="qcurve" smooth="yes"/>
      <point x="636.388059701" y="96.0"/>
      <point x="768.0" y="324.47761194"/>
      <point x="768" y="520" type="qcurve" smooth="yes"/>
      <point x="768" y="543" type="line" smooth="yes"/>
      <point x="768.0" y="741.507462687"/>
      <point x="636.388059701" y="969.0"/>
      <point x="514" y="969" type="qcurve" smooth="yes"/>
      <point x="390.119402985" y="969.0"/>
      <point x="258.0" y="742.52238806"/>
      <point x="258" y="547" type="qcurve" smooth="yes"/>
      <point x="258" y="522" type="line" smooth="yes"/>
      <point x="258.0" y="324.985074627"/>
      <point x="390.119402985" y="96.0"/>
    </contour>
  </outline>
</glyph>
<glyph name="p" format="1">
  <advance width="1069.056"/>
  <unicode hex="0070"/>
  <outline>
    <contour>
      <point x="987" y="547" type="qcurve" smooth="yes"/>
      <point x="987" y="524" type="line" smooth="yes"/>
      <point x="987.0" y="261.313432836"/>
      <point x="776.791044776" y="-18.0"/>
      <point x="635" y="-18" type="qcurve" smooth="yes"/>
      <point x="528.28358209" y="-18.0"/>
      <point x="379.970149254" y="110.791044776"/>
      <point x="324" y="219" type="qcurve"/>
      <point x="311" y="219" type="line"/>
      <point x="311" y="-385" type="line"/>
      <point x="133" y="-385" type="line"/>
      <point x="133" y="1038" type="line"/>
      <point x="311" y="1085" type="line"/>
      <point x="311" y="844" type="line"/>
      <point x="324" y="844" type="line"/>
      <point x="385.194029851" y="953.701492537"/>
      <point x="529.298507463" y="1085.0"/>
      <point x="639" y="1085" type="qcurve" smooth="yes"/>
      <point x="789.0" y="1085.0"/>
      <point x="987.0" y="811.179104478"/>
    </contour>
    <contour>
      <point x="573" y="104" type="qcurve" smooth="yes"/>
      <point x="669.268656716" y="104.0"/>
      <point x="811.0" y="310.597014925"/>
      <point x="811" y="530" type="qcurve" smooth="yes"/>
      <point x="811.0" y="761.343283582"/>
      <point x="665.776119403" y="963.0"/>
      <point x="571" y="963" type="qcurve" smooth="yes"/>
      <point x="459.805970149" y="963.0"/>
      <point x="307.0" y="711.104477612"/>
      <point x="307" y="532" type="qcurve" smooth="yes"/>
      <point x="307.0" y="355.134328358"/>
      <point x="458.820895522" y="104.0"/>
    </contour>
  </outline>
</glyph>
<glyph name="r" format="1">
  <advance width="782.336"/>
  <unicode hex="0072"/>
  <outline>
    <contour>
      <point x="750" y="1085" type="qcurve"/>
      <point x="750" y="893" type="line"/>
      <point x="616.417910448" y="866.880597015"/>
      <point x="390.850746269" y="684.910447761"/>
      <point x="311" y="567" type="qcurve"/>
      <point x="311" y="0" type="line"/>
      <point x="133" y="0" type="line"/>
      <point x="133" y="1038" type="line"/>
      <point x="311" y="1085" type="line"/>
      <point x="311" y="670" type="line"/>
      <point x="324" y="670" type="line"/>
      <point x="427.731343284" y="855.074626866"/>
      <point x="639.552238806" y="1064.10447761"/>
    </contour>
  </outline>
</glyph>
<glyph name="s" format="1">
  <advance width="856.064"/>
  <unicode hex="0073"/>
  <outline>
    <contour>
      <point x="473" y="625" type="qcurve" smooth="yes"/>
      <point x="653.597014925" y="563.805970149"/>
      <point x="797.0" y="405.149253731"/>
      <point x="797" y="285" type="qcurve" smooth="yes"/>
      <point x="797.0" y="136.492537313"/>
      <point x="584.0" y="-18.0"/>
      <point x="434" y="-18" type="qcurve" smooth="yes"/>
      <point x="307.134328358" y="-18.0"/>
      <point x="120.164179104" y="61.2985074627"/>
      <point x="53" y="121" type="qcurve"/>
      <point x="135" y="223" type="line"/>
      <point x="199.179104478" y="164.791044776"/>
      <point x="352.417910448" y="100.0"/>
      <point x="436" y="100" type="qcurve" smooth="yes"/>
      <point x="521.820895522" y="100.0"/>
      <point x="639.0" y="184.895522388"/>
      <point x="639" y="264" type="qcurve" smooth="yes"/>
      <point x="639.0" y="340.865671642"/>
      <point x="543.029850746" y="424.492537313"/>
      <point x="399" y="473" type="qcurve" smooth="yes"/>
      <point x="232.582089552" y="529.71641791"/>
      <point x="86.0" y="685.059701493"/>
      <point x="86" y="797" type="qcurve" smooth="yes"/>
      <point x="86.0" y="922.373134328"/>
      <point x="272.985074627" y="1083.0"/>
      <point x="420" y="1083" type="qcurve" smooth="yes"/>
      <point x="525.223880597" y="1083.0"/>
      <point x="683.641791045" y="1023.95522388"/>
      <point x="762" y="965" type="qcurve"/>
      <point x="678" y="858" type="line"/>
      <point x="610.835820896" y="913.223880597"/>
      <point x="488.149253731" y="967.0"/>
      <point x="418" y="967" type="qcurve" smooth="yes"/>
      <point x="332.179104478" y="967.0"/>
      <point x="244.0" y="876.701492537"/>
      <point x="244" y="817" type="qcurve" smooth="yes"/>
      <point x="244.0" y="749.835820896"/>
      <point x="349.119402985" y="666.044776119"/>
    </contour>
  </outline>
</glyph>
<glyph name="u" format="1">
  <advance width="1034.24"/>
  <unicode hex="0075"/>
  <outline>
    <contour>
      <point x="901" y="1067" type="line"/>
      <point x="901" y="29" type="line"/>
      <point x="721" y="-18" type="line"/>
      <point x="721" y="246" type="line"/>
      <point x="711" y="246" type="line"/>
      <point x="626.671641791" y="126.597014925"/>
      <point x="449.223880597" y="-12.0"/>
      <point x="344" y="-12" type="qcurve" smooth="yes"/>
      <point x="234.298507463" y="-12.0"/>
      <point x="125.0" y="123.074626866"/>
      <point x="125" y="238" type="qcurve" smooth="yes"/>
      <point x="125" y="1067" type="line"/>
      <point x="303" y="1067" type="line"/>
      <point x="303" y="276" type="line" smooth="yes"/>
      <point x="303.0" y="198.388059701"/>
      <point x="370.328358209" y="119.0"/>
      <point x="436" y="119" type="qcurve" smooth="yes"/>
      <point x="503.164179104" y="119.0"/>
      <point x="652.343283582" y="233.791044776"/>
      <point x="721" y="342" type="qcurve"/>
      <point x="721" y="1067" type="line"/>
    </contour>
  </outline>
</glyph>
<glyph name="v" format="1">
  <advance width="983.04"/>
  <unicode hex="0076"/>
  <outline>
    <contour>
      <point x="762" y="1067" type="line"/>
      <point x="936" y="1067" type="line"/>
      <point x="586" y="-10" type="line"/>
      <point x="395" y="-10" type="line"/>
      <point x="47" y="1067" type="line"/>
      <point x="231" y="1067" type="line"/>
      <point x="496" y="174" type="line"/>
    </contour>
  </outline>
</glyph>
<glyph name="z" format="1">
  <advance width="876.544"/>
  <unicode hex="007A"/>
  <outline>
    <contour>
      <point x="815" y="125" type="line"/>
      <point x="815" y="0" type="line"/>
      <point x="59" y="0" type="line"/>
      <point x="59" y="111" type="line"/>
      <point x="612" y="934" type="line"/>
      <point x="90" y="934" type="line"/>
      <point x="90" y="1059" type="line"/>
      <point x="815" y="1059" type="line"/>
      <point x="815" y="950" type="line"/>
      <point x="262" y="125" type="line"/>
    </contour>
  </outline>
</glyph>
<glyph name="braceleft" format="1">
  <advance width="815.104"/>
  <unicode hex="007B"/>
  <outline>
    <contour>
      <point x="750" y="-72" type="line"/>
      <point x="750" y="-164" type="line"/>
      <point x="553" y="-164" type="line" smooth="yes"/>
      <point x="412.701492537" y="-164.0"/>
      <point x="270.0" y="-31.8805970149"/>
      <point x="270" y="92" type="qcurve" smooth="yes"/>
      <point x="270.0" y="160.656716418"/>
      <point x="311.0" y="341.582089552"/>
      <point x="311" y="408" type="qcurve" smooth="yes"/>
      <point x="311.0" y="516.208955224"/>
      <point x="157.925373134" y="608.0"/>
      <point x="43" y="608" type="qcurve"/>
      <point x="43" y="702" type="line"/>
      <point x="157.925373134" y="702.0"/>
      <point x="311.0" y="794.791044776"/>
      <point x="311" y="903" type="qcurve" smooth="yes"/>
      <point x="311.0" y="968.671641791"/>
      <point x="270.0" y="1149.59701493"/>
      <point x="270" y="1219" type="qcurve" smooth="yes"/>
      <point x="270.0" y="1342.13432836"/>
      <point x="412.701492537" y="1475.0"/>
      <point x="553" y="1475" type="qcurve" smooth="yes"/>
      <point x="750" y="1475" type="line"/>
      <point x="750" y="1382" type="line"/>
      <point x="610" y="1382" type="line" smooth="yes"/>
      <point x="523.432835821" y="1382.0"/>
      <point x="442.0" y="1291.65671642"/>
      <point x="442" y="1223" type="qcurve" smooth="yes"/>
      <point x="442.0" y="1161.80597015"/>
      <point x="483.0" y="990.373134328"/>
      <point x="483" y="915" type="qcurve" smooth="yes"/>
      <point x="483.0" y="797.835820896"/>
      <point x="353.820895522" y="692.358208955"/>
      <point x="268" y="664" type="qcurve"/>
      <point x="268" y="647" type="line"/>
      <point x="353.820895522" y="617.895522388"/>
      <point x="483.0" y="512.910447761"/>
      <point x="483" y="395" type="qcurve" smooth="yes"/>
      <point x="483.0" y="320.373134328"/>
      <point x="442.0" y="149.194029851"/>
      <point x="442" y="88" type="qcurve" smooth="yes"/>
      <point x="442.0" y="19.3432835821"/>
      <point x="523.432835821" y="-72.0"/>
      <point x="610" y="-72" type="qcurve" smooth="yes"/>
    </contour>
  </outline>
</glyph>
<glyph name="bar" format="1">
  <advance width="495.616"/>
  <unicode hex="007C"/>
  <outline>
    <contour>
      <point x="326" y="1561" type="line"/>
      <point x="326" y="-385" type="line"/>
      <point x="170" y="-385" type="line"/>
      <point x="170" y="1561" type="line"/>
    </contour>
  </outline>
</glyph>
<glyph name="braceright" format="1">
  <advance width="815.104"/>
  <unicode hex="007D"/>
  <outline>
    <contour>
      <point x="770" y="702" type="qcurve"/>
      <point x="770" y="608" type="line"/>
      <point x="655.074626866" y="608.0"/>
      <point x="502.0" y="516.208955224"/>
      <point x="502" y="408" type="qcurve" smooth="yes"/>
      <point x="502.0" y="341.582089552"/>
      <point x="543.0" y="160.656716418"/>
      <point x="543" y="92" type="qcurve" smooth="yes"/>
      <point x="543.0" y="-31.8805970149"/>
      <point x="401.044776119" y="-164.0"/>
      <point x="260" y="-164" type="qcurve" smooth="yes"/>
      <point x="63" y="-164" type="line"/>
      <point x="63" y="-72" type="line"/>
      <point x="205" y="-72" type="line" smooth="yes"/>
      <point x="288.582089552" y="-72.0"/>
      <point x="373.0" y="19.3432835821"/>
      <point x="373" y="88" type="qcurve" smooth="yes"/>
      <point x="373.0" y="149.194029851"/>
      <point x="332.0" y="320.373134328"/>
      <point x="332" y="395" type="qcurve" smooth="yes"/>
      <point x="332.0" y="512.910447761"/>
      <point x="461.179104478" y="617.895522388"/>
      <point x="547" y="647" type="qcurve"/>
      <point x="547" y="664" type="line"/>
      <point x="461.179104478" y="692.358208955"/>
      <point x="332.0" y="797.835820896"/>
      <point x="332" y="915" type="qcurve" smooth="yes"/>
      <point x="332.0" y="990.373134328"/>
      <point x="373.0" y="1161.80597015"/>
      <point x="373" y="1223" type="qcurve" smooth="yes"/>
      <point x="373.0" y="1291.65671642"/>
      <point x="288.582089552" y="1382.0"/>
      <point x="205" y="1382" type="qcurve" smooth="yes"/>
      <point x="63" y="1382" type="line"/>
      <point x="63" y="1475" type="line"/>
      <point x="260" y="1475" type="line" smooth="yes"/>
      <point x="401.044776119" y="1475.0"/>
      <point x="543.0" y="1342.13432836"/>
      <point x="543" y="1219" type="qcurve" smooth="yes"/>
      <point x="543.0" y="1149.59701493"/>
      <point x="502.0" y="968.671641791"/>
      <point x="502" y="903" type="qcurve" smooth="yes"/>
      <point x="502.0" y="794.791044776"/>
      <point x="655.074626866" y="702.0"/>
    </contour>
  </outline>
</glyph>
<glyph name="sterling" format="1">
  <advance width="1187.84"/>
  <unicode hex="00A3"/>
  <outline>
    <contour>
      <point x="1012" y="395" type="qcurve"/>
      <point x="1139" y="352" type="line"/>
      <point x="1102.43283582" y="163.940298507"/>
      <point x="941.970149254" y="-12.0"/>
      <point x="786" y="-12" type="qcurve" smooth="yes"/>
      <point x="682.268656716" y="-12.0"/>
      <point x="506.776119403" y="63.328358209"/>
      <point x="412" y="129" type="qcurve"/>
      <point x="358.268656716" y="78.2537313433"/>
      <point x="209.268656716" y="7.40298507463"/>
      <point x="113" y="-12" type="qcurve"/>
      <point x="113" y="129" type="line"/>
      <point x="221.208955224" y="156.611940299"/>
      <point x="358.0" y="296.71641791"/>
      <point x="358" y="440" type="qcurve" smooth="yes"/>
      <point x="358.0" y="505.671641791"/>
      <point x="336.925373134" y="622.776119403"/>
      <point x="322" y="678" type="qcurve"/>
      <point x="76" y="678" type="line"/>
      <point x="76" y="786" type="line"/>
      <point x="287" y="786" type="line"/>
      <point x="262.373134328" y="862.865671642"/>
      <point x="221.0" y="1012.65671642"/>
      <point x="221" y="1094" type="qcurve" smooth="yes"/>
      <point x="221.0" y="1264.89552239"/>
      <point x="438.552238806" y="1499.0"/>
      <point x="649" y="1499" type="qcurve" smooth="yes"/>
      <point x="812.432835821" y="1499.0"/>
      <point x="1012.82089552" y="1375.70149254"/>
      <point x="1077" y="1266" type="qcurve"/>
      <point x="928" y="1182" type="line"/>
      <point x="872.776119403" y="1268.56716418"/>
      <point x="739.776119403" y="1358.0"/>
      <point x="645" y="1358" type="qcurve" smooth="yes"/>
      <point x="518.134328358" y="1358.0"/>
      <point x="395.0" y="1210.17910448"/>
      <point x="395" y="1096" type="qcurve" smooth="yes"/>
      <point x="395.0" y="1019.13432836"/>
      <point x="438.880597015" y="867.343283582"/>
      <point x="465" y="786" type="qcurve"/>
      <point x="852" y="786" type="line"/>
      <point x="852" y="678" type="line"/>
      <point x="498" y="678" type="line"/>
      <point x="509.940298507" y="624.268656716"/>
      <point x="528.0" y="507.671641791"/>
      <point x="528" y="442" type="qcurve" smooth="yes"/>
      <point x="528.0" y="387.52238806"/>
      <point x="509.910447761" y="291.044776119"/>
      <point x="492" y="250" type="qcurve"/>
      <point x="565.134328358" y="193.28358209"/>
      <point x="707.820895522" y="135.0"/>
      <point x="772" y="135" type="qcurve" smooth="yes"/>
      <point x="869.76119403" y="135.0"/>
      <point x="981.402985075" y="248.731343284"/>
    </contour>
  </outline>
</glyph>
<glyph name="section" format="1">
  <advance width="1191.936"/>
  <unicode hex="00A7"/>
  <outline>
    <contour>
      <point x="700" y="1036" type="qcurve" smooth="yes"/>
      <point x="928.358208955" y="974.805970149"/>
      <point x="1120.0" y="823.746268657"/>
      <point x="1120" y="723" type="qcurve" smooth="yes"/>
      <point x="1120.0" y="626.731343284"/>
      <point x="939.432835821" y="482.940298507"/>
      <point x="776" y="471" type="qcurve"/>
      <point x="776" y="459" type="line"/>
      <point x="887.940298507" y="423.925373134"/>
      <point x="991.0" y="304.343283582"/>
      <point x="991" y="223" type="qcurve" smooth="yes"/>
      <point x="991.0" y="111.805970149"/>
      <point x="788.149253731" y="-25.0"/>
      <point x="618" y="-25" type="qcurve" smooth="yes"/>
      <point x="491.880597015" y="-25.0"/>
      <point x="296.731343284" y="27.2835820896"/>
      <point x="193" y="84" type="qcurve"/>
      <point x="262" y="199" type="line"/>
      <point x="353.791044776" y="146.76119403"/>
      <point x="529.23880597" y="96.0"/>
      <point x="627" y="96" type="qcurve" smooth="yes"/>
      <point x="723.268656716" y="96.0"/>
      <point x="838.0" y="165.268656716"/>
      <point x="838" y="219" type="qcurve" smooth="yes"/>
      <point x="838.0" y="281.686567164"/>
      <point x="721.611940299" y="376.805970149"/>
      <point x="494" y="438" type="qcurve" smooth="yes"/>
      <point x="265.641791045" y="499.194029851"/>
      <point x="74.0" y="650.507462687"/>
      <point x="74" y="752" type="qcurve" smooth="yes"/>
      <point x="74.0" y="848.268656716"/>
      <point x="252.567164179" y="991.313432836"/>
      <point x="416" y="1004" type="qcurve"/>
      <point x="416" y="1016" type="line"/>
      <point x="304.059701493" y="1051.07462687"/>
      <point x="203.0" y="1170.40298507"/>
      <point x="203" y="1251" type="qcurve" smooth="yes"/>
      <point x="203.0" y="1362.94029851"/>
      <point x="405.089552239" y="1499.0"/>
      <point x="573" y="1499" type="qcurve" smooth="yes"/>
      <point x="699.865671642" y="1499.0"/>
      <point x="895.776119403" y="1446.97014925"/>
      <point x="1001" y="1391" type="qcurve"/>
      <point x="932" y="1276" type="line"/>
      <point x="840.208955224" y="1328.23880597"/>
      <point x="664.253731343" y="1378.0"/>
      <point x="565" y="1378" type="qcurve" smooth="yes"/>
      <point x="468.731343284" y="1378.0"/>
      <point x="356.0" y="1308.73134328"/>
      <point x="356" y="1255" type="qcurve" smooth="yes"/>
      <point x="356.0" y="1192.31343284"/>
      <point x="470.895522388" y="1097.19402985"/>
    </contour>
    <contour>
      <point x="721" y="530" type="qcurve" smooth="yes"/>
      <point x="830.701492537" y="530.0"/>
      <point x="977.0" y="618.895522388"/>
      <point x="977" y="698" type="qcurve" smooth="yes"/>
      <point x="977.0" y="762.179104478"/>
      <point x="852.76119403" y="866.970149254"/>
      <point x="705" y="911" type="qcurve" smooth="yes"/>
      <point x="646.791044776" y="928.164179104"/>
      <point x="537.179104478" y="944.0"/>
      <point x="473" y="944" type="qcurve" smooth="yes"/>
      <point x="363.298507463" y="944.0"/>
      <point x="217.0" y="855.850746269"/>
      <point x="217" y="776" type="qcurve" smooth="yes"/>
      <point x="217.0" y="711.820895522"/>
      <point x="339.746268657" y="607.776119403"/>
      <point x="489" y="563" type="qcurve" smooth="yes"/>
      <point x="547.208955224" y="546.582089552"/>
      <point x="656.820895522" y="530.0"/>
    </contour>
  </outline>
</glyph>
<glyph name="copyright" format="1">
  <advance width="1701.888"/>
  <unicode hex="00A9"/>
  <outline>
    <contour>
      <point x="1018" y="623" type="qcurve"/>
      <point x="1141" y="590" type="line"/>
      <point x="1113.3880597" y="463.134328358"/>
      <point x="969.880597015" y="315.0"/>
      <point x="846" y="315" type="qcurve" smooth="yes"/>
      <point x="703.462686567" y="315.0"/>
      <point x="532.0" y="538.970149254"/>
      <point x="532" y="733" type="qcurve" smooth="yes"/>
      <point x="532" y="760" type="line" smooth="yes"/>
      <point x="532.0" y="954.029850746"/>
      <point x="702.47761194" y="1178.0"/>
      <point x="848" y="1178" type="qcurve" smooth="yes"/>
      <point x="971.880597015" y="1178.0"/>
      <point x="1110.88059701" y="1038.65671642"/>
      <point x="1137" y="920" type="qcurve"/>
      <point x="1010" y="885" type="line"/>
      <point x="986.865671642" y="978.28358209"/>
      <point x="913.671641791" y="1069.0"/>
      <point x="848" y="1069" type="qcurve" smooth="yes"/>
      <point x="756.208955224" y="1069.0"/>
      <point x="672.0" y="900.358208955"/>
      <point x="672" y="772" type="qcurve" smooth="yes"/>
      <point x="672" y="725" type="line" smooth="yes"/>
      <point x="672.0" y="596.641791045"/>
      <point x="756.208955224" y="426.0"/>
      <point x="848" y="426" type="qcurve" smooth="yes"/>
      <point x="916.656716418" y="426.0"/>
      <point x="996.358208955" y="526.731343284"/>
    </contour>
    <contour>
      <point x="852" y="1499" type="qcurve" smooth="yes"/>
      <point x="1174.3880597" y="1499.0"/>
      <point x="1614.0" y="1060.88059701"/>
      <point x="1614" y="737" type="qcurve" smooth="yes"/>
      <point x="1614.0" y="414.611940299"/>
      <point x="1172.3880597" y="-25.0"/>
      <point x="850" y="-25" type="qcurve" smooth="yes"/>
      <point x="527.611940299" y="-25.0"/>
      <point x="90.0" y="413.119402985"/>
      <point x="90" y="737" type="qcurve" smooth="yes"/>
      <point x="90.0" y="1059.3880597"/>
      <point x="529.611940299" y="1499.0"/>
    </contour>
    <contour>
      <point x="852" y="45" type="qcurve" smooth="yes"/>
      <point x="1146.7761194" y="45.0"/>
      <point x="1534.0" y="442.223880597"/>
      <point x="1534" y="737" type="qcurve" smooth="yes"/>
      <point x="1534.0" y="1030.28358209"/>
      <point x="1144.7761194" y="1430.0"/>
      <point x="850" y="1430" type="qcurve" smooth="yes"/>
      <point x="556.71641791" y="1430.0"/>
      <point x="168.0" y="1032.52238806"/>
      <point x="168" y="737" type="qcurve" smooth="yes"/>
      <point x="168.0" y="443.71641791"/>
      <point x="557.223880597" y="45.0"/>
    </contour>
  </outline>
</glyph>
<glyph name="ordfeminine" format="1">
  <advance width="786.432"/>
  <unicode hex="00AA"/>
  <outline>
    <contour>
      <point x="709" y="821" type="qcurve"/>
      <point x="709" y="758" type="line"/>
      <point x="621.686567164" y="755.014925373"/>
      <point x="525.940298507" y="816.537313433"/>
      <point x="514" y="874" type="qcurve"/>
      <point x="465.492537313" y="813.552238806"/>
      <point x="354.194029851" y="754.0"/>
      <point x="293" y="754" type="qcurve" smooth="yes"/>
      <point x="211.656716418" y="754.0"/>
      <point x="94.0" y="851.223880597"/>
      <point x="94" y="946" type="qcurve" smooth="yes"/>
      <point x="94.0" y="1053.46268657"/>
      <point x="303.28358209" y="1186.50746269"/>
      <point x="510" y="1188" type="qcurve"/>
      <point x="510" y="1262" type="line" smooth="yes"/>
      <point x="510.0" y="1327.67164179"/>
      <point x="456.223880597" y="1389.0"/>
      <point x="401" y="1389" type="qcurve" smooth="yes"/>
      <point x="351.0" y="1389.0"/>
      <point x="246.686567164" y="1355.56716418"/>
      <point x="184" y="1319" type="qcurve"/>
      <point x="147" y="1405" type="line"/>
      <point x="211.179104478" y="1440.07462687"/>
      <point x="342.149253731" y="1485.0"/>
      <point x="422" y="1485" type="qcurve" smooth="yes"/>
      <point x="533.194029851" y="1485.0"/>
      <point x="635.0" y="1378.68656716"/>
      <point x="635" y="1266" type="qcurve" smooth="yes"/>
      <point x="635" y="909" type="line" smooth="yes"/>
      <point x="635.0" y="870.940298507"/>
      <point x="667.208955224" y="825.47761194"/>
    </contour>
    <contour>
      <point x="334" y="842" type="qcurve" smooth="yes"/>
      <point x="384.0" y="842.0"/>
      <point x="471.940298507" y="893.492537313"/>
      <point x="510" y="942" type="qcurve"/>
      <point x="510" y="1126" type="line"/>
      <point x="352.537313433" y="1124.50746269"/>
      <point x="219.0" y="1025.91044776"/>
      <point x="219" y="958" type="qcurve" smooth="yes"/>
      <point x="219.0" y="903.52238806"/>
      <point x="283.253731343" y="842.0"/>
    </contour>
    <contour>
      <point x="684" y="606" type="line"/>
      <point x="684" y="520" type="line"/>
      <point x="100" y="520" type="line"/>
      <point x="100" y="606" type="line"/>
    </contour>
  </outline>
</glyph>
<glyph name="guillemotleft" format="1">
  <advance width="960.512"/>
  <unicode hex="00AB"/>
  <outline>
    <contour>
      <point x="246" y="532" type="line"/>
      <point x="487" y="156" type="line"/>
      <point x="375" y="156" type="line"/>
      <point x="51" y="532" type="line"/>
      <point x="375" y="911" type="line"/>
      <point x="487" y="911" type="line"/>
    </contour>
    <contour>
      <point x="653" y="532" type="line"/>
      <point x="893" y="156" type="line"/>
      <point x="782" y="156" type="line"/>
      <point x="459" y="532" type="line"/>
      <point x="782" y="911" type="line"/>
      <point x="893" y="911" type="line"/>
    </contour>
  </outline>
</glyph>
<glyph name="uni00AE" format="1">
  <advance width="1701.888"/>
  <unicode hex="00AE"/>
  <outline>
    <contour>
      <point x="963" y="698" type="qcurve"/>
      <point x="1198" y="328" type="line"/>
      <point x="1047" y="328" type="line"/>
      <point x="823" y="682" type="line"/>
      <point x="725" y="682" type="line"/>
      <point x="725" y="328" type="line"/>
      <point x="590" y="328" type="line"/>
      <point x="590" y="1169" type="line"/>
      <point x="870" y="1169" type="line" smooth="yes"/>
      <point x="1003.58208955" y="1169.0"/>
      <point x="1161.0" y="1046.65671642"/>
      <point x="1161" y="928" type="qcurve" smooth="yes"/>
      <point x="1161.0" y="833.223880597"/>
      <point x="1054.04477612" y="718.149253731"/>
    </contour>
    <contour>
      <point x="852" y="1499" type="qcurve" smooth="yes"/>
      <point x="1174.3880597" y="1499.0"/>
      <point x="1614.0" y="1060.88059701"/>
      <point x="1614" y="737" type="qcurve" smooth="yes"/>
      <point x="1614.0" y="414.611940299"/>
      <point x="1172.3880597" y="-25.0"/>
      <point x="850" y="-25" type="qcurve" smooth="yes"/>
      <point x="527.611940299" y="-25.0"/>
      <point x="90.0" y="413.119402985"/>
      <point x="90" y="737" type="qcurve" smooth="yes"/>
      <point x="90.0" y="1059.3880597"/>
      <point x="529.611940299" y="1499.0"/>
    </contour>
    <contour>
      <point x="852" y="45" type="qcurve" smooth="yes"/>
      <point x="1146.7761194" y="45.0"/>
      <point x="1534.0" y="442.223880597"/>
      <point x="1534" y="737" type="qcurve" smooth="yes"/>
      <point x="1534.0" y="1030.28358209"/>
      <point x="1144.7761194" y="1430.0"/>
      <point x="850" y="1430" type="qcurve" smooth="yes"/>
      <point x="556.71641791" y="1430.0"/>
      <point x="168.0" y="1032.52238806"/>
      <point x="168" y="737" type="qcurve" smooth="yes"/>
      <point x="168.0" y="443.71641791"/>
      <point x="557.223880597" y="45.0"/>
    </contour>
    <contour>
      <point x="860" y="786" type="line" smooth="yes"/>
      <point x="939.850746269" y="786.0"/>
      <point x="1024.0" y="853.611940299"/>
      <point x="1024" y="926" type="qcurve" smooth="yes"/>
      <point x="1024.0" y="993.164179104"/>
      <point x="939.343283582" y="1065.0"/>
      <point x="858" y="1065" type="qcurve" smooth="yes"/>
      <point x="723" y="1065" type="line"/>
      <point x="723" y="786" type="line"/>
    </contour>
  </outline>
</glyph>
<glyph name="acute" format="1">
  <advance width="1024.0"/>
  <unicode hex="00B4"/>
  <outline>
    <contour>
      <point x="514" y="1522" type="line"/>
      <point x="739" y="1522" type="line"/>
      <point x="453" y="1212" type="line"/>
      <point x="334" y="1212" type="line"/>
    </contour>
  </outline>
</glyph>
<glyph name="paragraph" format="1">
  <advance width="1093.632"/>
  <unicode hex="00B6"/>
  <outline>
    <contour>
      <point x="932" y="1475" type="line"/>
      <point x="932" y="0" type="line"/>
      <point x="827" y="0" type="line"/>
      <point x="827" y="1380" type="line"/>
      <point x="629" y="1380" type="line"/>
      <point x="629" y="0" type="line"/>
      <point x="524" y="0" type="line"/>
      <point x="524" y="717" type="line"/>
      <point x="303.850746269" y="719.985074627"/>
      <point x="66.0" y="920.358208955"/>
      <point x="66" y="1092" type="qcurve" smooth="yes"/>
      <point x="66.0" y="1276.32835821"/>
      <point x="318.059701493" y="1475.0"/>
      <point x="530" y="1475" type="qcurve" smooth="yes"/>
    </contour>
  </outline>
</glyph>
<glyph name="periodcentered" format="1">
  <advance width="405.504"/>
  <unicode hex="00B7"/>
  <outline>
    <contour>
      <point x="203" y="690" type="qcurve" smooth="yes"/>
      <point x="254.492537313" y="690.0"/>
      <point x="324.0" y="621.23880597"/>
      <point x="324" y="569" type="qcurve" smooth="yes"/>
      <point x="324.0" y="517.507462687"/>
      <point x="254.492537313" y="449.0"/>
      <point x="203" y="449" type="qcurve" smooth="yes"/>
      <point x="150.76119403" y="449.0"/>
      <point x="82.0" y="517.507462687"/>
      <point x="82" y="569" type="qcurve" smooth="yes"/>
      <point x="82.0" y="621.23880597"/>
      <point x="150.76119403" y="690.0"/>
    </contour>
  </outline>
</glyph>
<glyph name="guillemotright" format="1">
  <advance width="960.512"/>
  <unicode hex="00BB"/>
  <outline>
    <contour>
      <point x="178" y="911" type="line"/>
      <point x="502" y="532" type="line"/>
      <point x="178" y="156" type="line"/>
      <point x="66" y="156" type="line"/>
      <point x="307" y="532" type="line"/>
      <point x="66" y="911" type="line"/>
    </contour>
    <contour>
      <point x="584" y="911" type="line"/>
      <point x="907" y="532" type="line"/>
      <point x="584" y="156" type="line"/>
      <point x="473" y="156" type="line"/>
      <point x="713" y="532" type="line"/>
      <point x="473" y="911" type="line"/>
    </contour>
  </outline>
</glyph>
<glyph name="AE" format="1">
  <advance width="1898.496"/>
  <unicode hex="00C6"/>
  <outline>
    <contour>
      <point x="1823" y="150" type="line"/>
      <point x="1823" y="0" type="line"/>
      <point x="948" y="0" type="line"/>
      <point x="948" y="379" type="line"/>
      <point x="408" y="379" type="line"/>
      <point x="215" y="0" type="line"/>
      <point x="20" y="0" type="line"/>
      <point x="784" y="1475" type="line"/>
      <point x="1798" y="1475" type="line"/>
      <point x="1798" y="1325" type="line"/>
      <point x="1133" y="1325" type="line"/>
      <point x="1133" y="842" type="line"/>
      <point x="1669" y="842" type="line"/>
      <point x="1669" y="696" type="line"/>
      <point x="1133" y="696" type="line"/>
      <point x="1133" y="150" type="line"/>
    </contour>
    <contour>
      <point x="469" y="512" type="line"/>
      <point x="948" y="512" type="line"/>
      <point x="948" y="1327" type="line"/>
      <point x="891" y="1327" type="line"/>
    </contour>
  </outline>
</glyph>
<glyph name="Eth" format="1">
  <advance width="1355.776"/>
  <unicode hex="00D0"/>
  <outline>
    <contour>
      <point x="1257" y="756" type="qcurve" smooth="yes"/>
      <point x="1257" y="721" type="line" smooth="yes"/>
      <point x="1257.0" y="378.462686567"/>
      <point x="920.253731343" y="0.0"/>
      <point x="621" y="0" type="qcurve" smooth="yes"/>
      <point x="233" y="0" type="line"/>
      <point x="233" y="694" type="line"/>
      <point x="53" y="694" type="line"/>
      <point x="53" y="844" type="line"/>
      <point x="233" y="844" type="line"/>
      <point x="233" y="1475" type="line"/>
      <point x="629" y="1475" type="line" smooth="yes"/>
      <point x="928.253731343" y="1475.0"/>
      <point x="1257.0" y="1096.29850746"/>
    </contour>
    <contour>
      <point x="623" y="147" type="line" smooth="yes"/>
      <point x="828.970149254" y="147.0"/>
      <point x="1061.0" y="434.611940299"/>
      <point x="1061" y="707" type="qcurve" smooth="yes"/>
      <point x="1061" y="766" type="line" smooth="yes"/>
      <point x="1061.0" y="1039.88059701"/>
      <point x="833.164179104" y="1327.0"/>
      <point x="616" y="1327" type="qcurve" smooth="yes"/>
      <point x="416" y="1327" type="line"/>
      <point x="416" y="844" type="line"/>
      <point x="686" y="844" type="line"/>
      <point x="686" y="694" type="line"/>
      <point x="416" y="694" type="line"/>
      <point x="416" y="147" type="line"/>
    </contour>
  </outline>
</glyph>
<glyph name="multiply" format="1">
  <advance width="1228.8"/>
  <unicode hex="00D7"/>
  <outline>
    <contour>
      <point x="717" y="727" type="line"/>
      <point x="1098" y="356" type="line"/>
      <point x="985" y="244" type="line"/>
      <point x="614" y="625" type="line"/>
      <point x="244" y="244" type="line"/>
      <point x="131" y="356" type="line"/>
      <point x="512" y="727" type="line"/>
      <point x="131" y="1098" type="line"/>
      <point x="244" y="1210" type="line"/>
      <point x="614" y="829" type="line"/>
      <point x="985" y="1210" type="line"/>
      <point x="1098" y="1098" type="line"/>
    </contour>
  </outline>
</glyph>
<glyph name="ae" format="1">
  <advance width="1562.624"/>
  <unicode hex="00E6"/>
  <outline>
    <contour>
      <point x="1479" y="119" type="line"/>
      <point x="1399.14925373" y="54.8208955224"/>
      <point x="1228.92537313" y="-18.0"/>
      <point x="1114" y="-18" type="qcurve" smooth="yes"/>
      <point x="996.089552239" y="-18.0"/>
      <point x="809.970149254" y="92.0149253731"/>
      <point x="754" y="195" type="qcurve"/>
      <point x="669.671641791" y="95.0"/>
      <point x="471.940298507" y="-14.0"/>
      <point x="360" y="-14" type="qcurve" smooth="yes"/>
      <point x="230.149253731" y="-14.0"/>
      <point x="59.0" y="130.686567164"/>
      <point x="59" y="268" type="qcurve" smooth="yes"/>
      <point x="59.0" y="429.940298507"/>
      <point x="372.537313433" y="626.52238806"/>
      <point x="680" y="631" type="qcurve"/>
      <point x="680" y="762" type="line" smooth="yes"/>
      <point x="680.0" y="852.298507463"/>
      <point x="589.074626866" y="950.0"/>
      <point x="504" y="950" type="qcurve" smooth="yes"/>
      <point x="436.835820896" y="950.0"/>
      <point x="285.537313433" y="897.492537313"/>
      <point x="193" y="846" type="qcurve"/>
      <point x="139" y="961" type="line"/>
      <point x="233.776119403" y="1011.0"/>
      <point x="417.791044776" y="1077.0"/>
      <point x="526" y="1077" type="qcurve" smooth="yes"/>
      <point x="645.402985075" y="1077.0"/>
      <point x="766.089552239" y="963.28358209"/>
      <point x="784" y="870" type="qcurve"/>
      <point x="799" y="870" type="line"/>
      <point x="843.029850746" y="971.492537313"/>
      <point x="989.52238806" y="1087.0"/>
      <point x="1094" y="1087" type="qcurve" smooth="yes"/>
      <point x="1276.8358209" y="1087.0"/>
      <point x="1483.0" y="787.507462687"/>
      <point x="1483" y="539" type="qcurve" smooth="yes"/>
      <point x="1483" y="496" type="line"/>
      <point x="850" y="496" type="line"/>
      <point x="852.985074627" y="301.970149254"/>
      <point x="1008.64179104" y="109.0"/>
      <point x="1137" y="109" type="qcurve" smooth="yes"/>
      <point x="1214.6119403" y="109.0"/>
      <point x="1350.34328358" y="169.029850746"/>
      <point x="1419" y="225" type="qcurve"/>
    </contour>
    <contour>
      <point x="225" y="287" type="qcurve" smooth="yes"/>
      <point x="225.0" y="196.701492537"/>
      <point x="332.179104478" y="100.0"/>
      <point x="418" y="100" type="qcurve" smooth="yes"/>
      <point x="491.134328358" y="100.0"/>
      <point x="650.343283582" y="186.417910448"/>
      <point x="719" y="270" type="qcurve"/>
      <point x="698.850746269" y="323.731343284"/>
      <point x="680.0" y="447.343283582"/>
      <point x="680" y="516" type="qcurve" smooth="yes"/>
      <point x="680" y="547" type="line"/>
      <point x="439.701492537" y="545.507462687"/>
      <point x="225.0" y="392.223880597"/>
    </contour>
    <contour>
      <point x="1090" y="973" type="qcurve" smooth="yes"/>
      <point x="981.044776119" y="973.0"/>
      <point x="857.462686567" y="769.343283582"/>
      <point x="850" y="588" type="qcurve"/>
      <point x="1313" y="588" type="line"/>
      <point x="1303.29850746" y="779.044776119"/>
      <point x="1193.73134328" y="973.0"/>
    </contour>
  </outline>
</glyph>
<glyph name="ccedilla" format="1">
  <advance width="933.888"/>
  <unicode hex="00E7"/>
  <outline>
    <contour>
      <point x="727" y="307" type="qcurve"/>
      <point x="877" y="266" type="line"/>
      <point x="833.71641791" y="137.641791045"/>
      <point x="661.104477612" y="-11.0447761194"/>
      <point x="532" y="-20" type="qcurve"/>
      <point x="477" y="-106" type="line"/>
      <point x="498.641791045" y="-98.5373134328"/>
      <point x="546.134328358" y="-90.0"/>
      <point x="573" y="-90" type="qcurve" smooth="yes"/>
      <point x="642.402985075" y="-90.0"/>
      <point x="727.0" y="-148.791044776"/>
      <point x="727" y="-207" type="qcurve" smooth="yes"/>
      <point x="727.0" y="-303.268656716"/>
      <point x="497.104477612" y="-395.47761194"/>
      <point x="268" y="-391" type="qcurve"/>
      <point x="268" y="-338" type="line"/>
      <point x="451.582089552" y="-335.014925373"/>
      <point x="598.0" y="-277.268656716"/>
      <point x="598" y="-231" type="qcurve" smooth="yes"/>
      <point x="598.0" y="-204.134328358"/>
      <point x="556.567164179" y="-174.0"/>
      <point x="520" y="-174" type="qcurve" smooth="yes"/>
      <point x="489.402985075" y="-174.0"/>
      <point x="434.865671642" y="-186.313432836"/>
      <point x="408" y="-199" type="qcurve"/>
      <point x="356" y="-166" type="line"/>
      <point x="453" y="-18" type="line"/>
      <point x="282.850746269" y="1.40298507463"/>
      <point x="80.0" y="292.388059701"/>
      <point x="80" y="520" type="qcurve" smooth="yes"/>
      <point x="80" y="543" type="line" smooth="yes"/>
      <point x="80.0" y="784.044776119"/>
      <point x="312.985074627" y="1087.0"/>
      <point x="510" y="1087" type="qcurve" smooth="yes"/>
      <point x="651.791044776" y="1087.0"/>
      <point x="827.462686567" y="940.820895522"/>
      <point x="870" y="805" type="qcurve"/>
      <point x="717" y="764" type="line"/>
      <point x="683.417910448" y="860.268656716"/>
      <point x="589.582089552" y="963.0"/>
      <point x="506" y="963" type="qcurve" smooth="yes"/>
      <point x="388.089552239" y="963.0"/>
      <point x="258.0" y="736.52238806"/>
      <point x="258" y="541" type="qcurve" smooth="yes"/>
      <point x="258" y="528" type="line" smooth="yes"/>
      <point x="258.0" y="330.985074627"/>
      <point x="388.597014925" y="102.0"/>
      <point x="508" y="102" type="qcurve" smooth="yes"/>
      <point x="587.104477612" y="102.0"/>
      <point x="688.940298507" y="203.268656716"/>
    </contour>
  </outline>
</glyph>
<glyph name="divide" format="1">
  <advance width="1228.8"/>
  <unicode hex="00F7"/>
  <outline>
    <contour>
      <point x="614" y="420" type="qcurve" smooth="yes"/>
      <point x="666.23880597" y="420.0"/>
      <point x="735.0" y="351.23880597"/>
      <point x="735" y="299" type="qcurve" smooth="yes"/>
      <point x="735.0" y="248.253731343"/>
      <point x="666.23880597" y="178.0"/>
      <point x="614" y="178" type="qcurve" smooth="yes"/>
      <point x="562.507462687" y="178.0"/>
      <point x="494.0" y="248.253731343"/>
      <point x="494" y="299" type="qcurve" smooth="yes"/>
      <point x="494.0" y="351.23880597"/>
      <point x="562.507462687" y="420.0"/>
    </contour>
    <contour>
      <point x="614" y="1276" type="qcurve" smooth="yes"/>
      <point x="666.23880597" y="1276.0"/>
      <point x="735.0" y="1205.74626866"/>
      <point x="735" y="1155" type="qcurve" smooth="yes"/>
      <point x="735.0" y="1102.76119403"/>
      <point x="666.23880597" y="1034.0"/>
      <point x="614" y="1034" type="qcurve" smooth="yes"/>
      <point x="562.507462687" y="1034.0"/>
      <point x="494.0" y="1102.76119403"/>
      <point x="494" y="1155" type="qcurve" smooth="yes"/>
      <point x="494.0" y="1205.74626866"/>
      <point x="562.507462687" y="1276.0"/>
    </contour>
    <contour>
      <point x="1139" y="805" type="line"/>
      <point x="1139" y="649" type="line"/>
      <point x="90" y="649" type="line"/>
      <point x="90" y="805" type="line"/>
    </contour>
  </outline>
</glyph>
<glyph name="lslash" format="1">
  <advance width="626.688"/>
  <unicode hex="0142"/>
  <outline>
    <contour>
      <point x="573" y="950" type="line"/>
      <point x="573" y="799" type="line"/>
      <point x="399" y="721" type="line"/>
      <point x="399" y="0" type="line"/>
      <point x="225" y="0" type="line"/>
      <point x="225" y="651" type="line"/>
      <point x="53" y="571" type="line"/>
      <point x="53" y="721" type="line"/>
      <point x="225" y="799" type="line"/>
      <point x="225" y="1509" type="line"/>
      <point x="399" y="1556" type="line"/>
      <point x="399" y="870" type="line"/>
    </contour>
  </outline>
</glyph>
<glyph name="OE" format="1">
  <advance width="1826.816"/>
  <unicode hex="0152"/>
  <outline>
    <contour>
      <point x="1751" y="147" type="line"/>
      <point x="1751" y="0" type="line"/>
      <point x="741" y="0" type="line" smooth="yes"/>
      <point x="432.791044776" y="0.0"/>
      <point x="100.0" y="377.955223881"/>
      <point x="100" y="719" type="qcurve" smooth="yes"/>
      <point x="100" y="754" type="line" smooth="yes"/>
      <point x="100.0" y="1095.79104478"/>
      <point x="441.044776119" y="1475.0"/>
      <point x="750" y="1475" type="qcurve" smooth="yes"/>
      <point x="1726" y="1475" type="line"/>
      <point x="1726" y="1327" type="line"/>
      <point x="1075" y="1327" type="line"/>
      <point x="1075" y="842" type="line"/>
      <point x="1597" y="842" type="line"/>
      <point x="1597" y="696" type="line"/>
      <point x="1075" y="696" type="line"/>
      <point x="1075" y="147" type="line"/>
    </contour>
    <contour>
      <point x="756" y="145" type="qcurve" smooth="yes"/>
      <point x="889" y="145" type="line"/>
      <point x="889" y="1329" type="line"/>
      <point x="748" y="1329" type="line" smooth="yes"/>
      <point x="536.805970149" y="1329.0"/>
      <point x="293.0" y="1042.3880597"/>
      <point x="293" y="770" type="qcurve" smooth="yes"/>
      <point x="293" y="709" type="line" smooth="yes"/>
      <point x="293.0" y="433.626865672"/>
      <point x="532.865671642" y="145.0"/>
    </contour>
  </outline>
</glyph>
<glyph name="oe" format="1">
  <advance width="1654.784"/>
  <unicode hex="0153"/>
  <outline>
    <contour>
      <point x="850" y="256" type="line"/>
      <point x="813.432835821" y="133.611940299"/>
      <point x="642.328358209" y="-20.0"/>
      <point x="508" y="-20" type="qcurve" smooth="yes"/>
      <point x="312.47761194" y="-20.0"/>
      <point x="80.0" y="278.955223881"/>
      <point x="80" y="520" type="qcurve" smooth="yes"/>
      <point x="80" y="543" type="line" smooth="yes"/>
      <point x="80.0" y="784.044776119"/>
      <point x="311.462686567" y="1087.0"/>
      <point x="504" y="1087" type="qcurve" smooth="yes"/>
      <point x="636.835820896" y="1087.0"/>
      <point x="813.432835821" y="935.358208955"/>
      <point x="850" y="807" type="qcurve"/>
      <point x="866" y="807" type="line"/>
      <point x="902.567164179" y="935.358208955"/>
      <point x="1069.10447761" y="1087.0"/>
      <point x="1190" y="1087" type="qcurve" smooth="yes"/>
      <point x="1366.86567164" y="1087.0"/>
      <point x="1575.0" y="787.507462687"/>
      <point x="1575" y="539" type="qcurve" smooth="yes"/>
      <point x="1575" y="496" type="line"/>
      <point x="940" y="496" type="line"/>
      <point x="944.47761194" y="301.970149254"/>
      <point x="1100.64179104" y="109.0"/>
      <point x="1229" y="109" type="qcurve" smooth="yes"/>
      <point x="1306.6119403" y="109.0"/>
      <point x="1441.8358209" y="169.029850746"/>
      <point x="1509" y="225" type="qcurve"/>
      <point x="1571" y="119" type="line"/>
      <point x="1491.14925373" y="54.8208955224"/>
      <point x="1325.20895522" y="-18.0"/>
      <point x="1217" y="-18" type="qcurve" smooth="yes"/>
      <point x="1077.44776119" y="-18.0"/>
      <point x="906.298507463" y="123.164179104"/>
      <point x="866" y="256" type="qcurve"/>
    </contour>
    <contour>
      <point x="258" y="522" type="line" smooth="yes"/>
      <point x="258.0" y="324.985074627"/>
      <point x="390.119402985" y="96.0"/>
      <point x="514" y="96" type="qcurve" smooth="yes"/>
      <point x="636.388059701" y="96.0"/>
      <point x="768.0" y="324.47761194"/>
      <point x="768" y="520" type="qcurve" smooth="yes"/>
      <point x="768" y="543" type="line" smooth="yes"/>
      <point x="768.0" y="741.507462687"/>
      <point x="636.388059701" y="969.0"/>
      <point x="514" y="969" type="qcurve" smooth="yes"/>
      <point x="390.119402985" y="969.0"/>
      <point x="258.0" y="742.52238806"/>
      <point x="258" y="547" type="qcurve" smooth="yes"/>
    </contour>
    <contour>
      <point x="1180" y="973" type="qcurve" smooth="yes"/>
      <point x="1072.53731343" y="973.0"/>
      <point x="947.970149254" y="769.343283582"/>
      <point x="942" y="588" type="qcurve"/>
      <point x="1405" y="588" type="line"/>
      <point x="1396.04477612" y="779.044776119"/>
      <point x="1285.2238806" y="973.0"/>
    </contour>
  </outline>
</glyph>
<glyph name="circumflex" format="1">
  <advance width="1024.0"/>
  <unicode hex="02C6"/>
  <outline>
    <contour>
      <point x="586" y="1534" type="line"/>
      <point x="836" y="1206" type="line"/>
      <point x="737" y="1206" type="line"/>
      <point x="510" y="1411" type="line"/>
      <point x="283" y="1206" type="line"/>
      <point x="188" y="1206" type="line"/>
      <point x="438" y="1534" type="line"/>
    </contour>
  </outline>
</glyph>
<glyph name="caron" format="1">
  <advance width="1024.0"/>
  <unicode hex="02C7"/>
  <outline>
    <contour>
      <point x="741" y="1540" type="line"/>
      <point x="836" y="1540" type="line"/>
      <point x="586" y="1212" type="line"/>
      <point x="438" y="1212" type="line"/>
      <point x="188" y="1540" type="line"/>
      <point x="287" y="1540" type="line"/>
      <point x="514" y="1337" type="line"/>
    </contour>
  </outline>
</glyph>
<glyph name="ring" format="1">
  <advance width="1024.0"/>
  <unicode hex="02DA"/>
  <outline>
    <contour>
      <point x="512" y="1577" type="qcurve" smooth="yes"/>
      <point x="606.776119403" y="1577.0"/>
      <point x="723.0" y="1471.08955224"/>
      <point x="723" y="1389" type="qcurve" smooth="yes"/>
      <point x="723.0" y="1306.1641791"/>
      <point x="606.776119403" y="1198.0"/>
      <point x="512" y="1198" type="qcurve" smooth="yes"/>
      <point x="417.223880597" y="1198.0"/>
      <point x="301.0" y="1306.1641791"/>
      <point x="301" y="1389" type="qcurve" smooth="yes"/>
      <point x="301.0" y="1471.08955224"/>
      <point x="417.223880597" y="1577.0"/>
    </contour>
    <contour>
      <point x="512" y="1272" type="qcurve" smooth="yes"/>
      <point x="559.014925373" y="1272.0"/>
      <point x="623.0" y="1338.25373134"/>
      <point x="623" y="1389" type="qcurve" smooth="yes"/>
      <point x="623.0" y="1439.0"/>
      <point x="559.014925373" y="1505.0"/>
      <point x="512" y="1505" type="qcurve" smooth="yes"/>
      <point x="464.985074627" y="1505.0"/>
      <point x="401.0" y="1439.0"/>
      <point x="401" y="1389" type="qcurve" smooth="yes"/>
      <point x="401.0" y="1338.25373134"/>
      <point x="464.985074627" y="1272.0"/>
    </contour>
  </outline>
</glyph>
<glyph name="quoteleft" format="1">
  <advance width="405.504"/>
  <unicode hex="2018"/>
  <unicode hex="02BB"/>
  <outline>
    <contour>
      <point x="260" y="1475" type="line"/>
      <point x="326" y="1001" type="line"/>
      <point x="219" y="1001" type="line"/>
      <point x="57" y="1475" type="line"/>
    </contour>
  </outline>
</glyph>
<glyph name="quotedblleft" format="1">
  <advance width="737.28"/>
  <unicode hex="201C"/>
  <outline>
    <contour>
      <point x="256" y="1475" type="line"/>
      <point x="324" y="1001" type="line"/>
      <point x="219" y="1001" type="line"/>
      <point x="57" y="1475" type="line"/>
    </contour>
    <contour>
      <point x="592" y="1475" type="line"/>
      <point x="657" y="1001" type="line"/>
      <point x="553" y="1001" type="line"/>
      <point x="393" y="1475" type="line"/>
    </contour>
  </outline>
</glyph>
<glyph name="quotedblright" format="1">
  <advance width="737.28"/>
  <unicode hex="201D"/>
  <outline>
    <contour>
      <point x="145" y="1475" type="line"/>
      <point x="344" y="1475" type="line"/>
      <point x="184" y="1001" type="line"/>
      <point x="80" y="1001" type="line"/>
    </contour>
    <contour>
      <point x="481" y="1475" type="line"/>
      <point x="678" y="1475" type="line"/>
      <point x="518" y="1001" type="line"/>
      <point x="416" y="1001" type="line"/>
    </contour>
  </outline>
</glyph>
<glyph name="quotedblbase" format="1">
  <advance width="737.28"/>
  <unicode hex="201E"/>
  <outline>
    <contour>
      <point x="127" y="231" type="line"/>
      <point x="326" y="231" type="line"/>
      <point x="166" y="-242" type="line"/>
      <point x="61" y="-242" type="line"/>
    </contour>
    <contour>
      <point x="461" y="231" type="line"/>
      <point x="659" y="231" type="line"/>
      <point x="500" y="-242" type="line"/>
      <point x="397" y="-242" type="line"/>
    </contour>
  </outline>
</glyph>
<glyph name="dagger" format="1">
  <advance width="911.36"/>
  <unicode hex="2020"/>
  <outline>
    <contour>
      <point x="848" y="1087" type="line"/>
      <point x="848" y="938" type="line"/>
      <point x="508" y="981" type="line"/>
      <point x="553" y="705" type="line"/>
      <point x="489" y="0" type="line"/>
      <point x="420" y="0" type="line"/>
      <point x="356" y="705" type="line"/>
      <point x="401" y="981" type="line"/>
      <point x="61" y="938" type="line"/>
      <point x="61" y="1087" type="line"/>
      <point x="401" y="1042" type="line"/>
      <point x="356" y="1475" type="line"/>
      <point x="553" y="1475" type="line"/>
      <point x="508" y="1042" type="line"/>
    </contour>
  </outline>
</glyph>
<glyph name="daggerdbl" format="1">
  <advance width="972.8"/>
  <unicode hex="2021"/>
  <outline>
    <contour>
      <point x="879" y="496" type="line"/>
      <point x="879" y="346" type="line"/>
      <point x="537" y="391" type="line"/>
      <point x="584" y="0" type="line"/>
      <point x="387" y="0" type="line"/>
      <point x="436" y="391" type="line"/>
      <point x="92" y="346" type="line"/>
      <point x="92" y="496" type="line"/>
      <point x="436" y="453" type="line"/>
      <point x="391" y="737" type="line"/>
      <point x="436" y="1022" type="line"/>
      <point x="92" y="979" type="line"/>
      <point x="92" y="1128" type="line"/>
      <point x="436" y="1083" type="line"/>
      <point x="387" y="1475" type="line"/>
      <point x="584" y="1475" type="line"/>
      <point x="537" y="1083" type="line"/>
      <point x="879" y="1128" type="line"/>
      <point x="879" y="979" type="line"/>
      <point x="537" y="1022" type="line"/>
      <point x="580" y="737" type="line"/>
      <point x="537" y="453" type="line"/>
    </contour>
  </outline>
</glyph>
<glyph name="ellipsis" format="1">
  <advance width="1269.76"/>
  <unicode hex="2026"/>
  <outline>
    <contour>
      <point x="201" y="211" type="qcurve" smooth="yes"/>
      <point x="249.507462687" y="211.0"/>
      <point x="313.0" y="147.253731343"/>
      <point x="313" y="98" type="qcurve" smooth="yes"/>
      <point x="313.0" y="50.9850746269"/>
      <point x="249.507462687" y="-14.0"/>
      <point x="201" y="-14" type="qcurve" smooth="yes"/>
      <point x="153.23880597" y="-14.0"/>
      <point x="88.0" y="50.9850746269"/>
      <point x="88" y="98" type="qcurve" smooth="yes"/>
      <point x="88.0" y="147.253731343"/>
      <point x="153.23880597" y="211.0"/>
    </contour>
    <contour>
      <point x="635" y="211" type="qcurve" smooth="yes"/>
      <point x="683.507462687" y="211.0"/>
      <point x="748.0" y="147.253731343"/>
      <point x="748" y="98" type="qcurve" smooth="yes"/>
      <point x="748.0" y="50.9850746269"/>
      <point x="683.507462687" y="-14.0"/>
      <point x="635" y="-14" type="qcurve" smooth="yes"/>
      <point x="587.23880597" y="-14.0"/>
      <point x="522.0" y="50.9850746269"/>
      <point x="522" y="98" type="qcurve" smooth="yes"/>
      <point x="522.0" y="147.253731343"/>
      <point x="587.23880597" y="211.0"/>
    </contour>
    <contour>
      <point x="1069" y="211" type="qcurve" smooth="yes"/>
      <point x="1118.25373134" y="211.0"/>
      <point x="1182.0" y="147.253731343"/>
      <point x="1182" y="98" type="qcurve" smooth="yes"/>
      <point x="1182.0" y="50.9850746269"/>
      <point x="1118.25373134" y="-14.0"/>
      <point x="1069" y="-14" type="qcurve" smooth="yes"/>
      <point x="1021.98507463" y="-14.0"/>
      <point x="958.0" y="50.9850746269"/>
      <point x="958" y="98" type="qcurve" smooth="yes"/>
      <point x="958.0" y="147.253731343"/>
      <point x="1021.98507463" y="211.0"/>
    </contour>
  </outline>
</glyph>
<glyph name="guilsinglleft" format="1">
  <advance width="555.008"/>
  <unicode hex="2039"/>
  <outline>
    <contour>
      <point x="246" y="532" type="line"/>
      <point x="487" y="156" type="line"/>
      <point x="375" y="156" type="line"/>
      <point x="51" y="532" type="line"/>
      <point x="375" y="911" type="line"/>
      <point x="487" y="911" type="line"/>
    </contour>
  </outline>
</glyph>
<glyph name="guilsinglright" format="1">
  <advance width="555.008"/>
  <unicode hex="203A"/>
  <outline>
    <contour>
      <point x="178" y="911" type="line"/>
      <point x="502" y="532" type="line"/>
      <point x="178" y="156" type="line"/>
      <point x="66" y="156" type="line"/>
      <point x="307" y="532" type="line"/>
      <point x="66" y="911" type="line"/>
    </contour>
  </outline>
</glyph>
<glyph name="fraction" format="1">
  <advance width="774.144"/>
  <unicode hex="2044"/>
  <outline>
    <contour>
      <point x="690" y="1505" type="line"/>
      <point x="860" y="1505" type="line"/>
      <point x="82" y="-31" type="line"/>
      <point x="-88" y="-31" type="line"/>
    </contour>
  </outline>
</glyph>
<glyph name="Euro" format="1">
  <advance width="1202.176"/>
  <unicode hex="20AC"/>
  <outline>
    <contour>
      <point x="989" y="436" type="qcurve"/>
      <point x="1128" y="367" type="line"/>
      <point x="1059.34328358" y="190.880597015"/>
      <point x="832.014925373" y="-25.0"/>
      <point x="635" y="-25" type="qcurve" smooth="yes"/>
      <point x="390.223880597" y="-25.0"/>
      <point x="100.0" y="370.970149254"/>
      <point x="100" y="715" type="qcurve" smooth="yes"/>
      <point x="100" y="760" type="line" smooth="yes"/>
      <point x="100.0" y="1101.04477612"/>
      <point x="389.746268657" y="1499.0"/>
      <point x="639" y="1499" type="qcurve" smooth="yes"/>
      <point x="825.567164179" y="1499.0"/>
      <point x="1052.32835821" y="1313.35820896"/>
      <point x="1118" y="1135" type="qcurve"/>
      <point x="971" y="1057" type="line"/>
      <point x="918.76119403" y="1201.7761194"/>
      <point x="763.895522388" y="1354.0"/>
      <point x="643" y="1354" type="qcurve" smooth="yes"/>
      <point x="495.985074627" y="1354.0"/>
      <point x="324.134328358" y="1124.05970149"/>
      <point x="301" y="936" type="qcurve"/>
      <point x="752" y="936" type="line"/>
      <point x="752" y="831" type="line"/>
      <point x="293" y="831" type="line"/>
      <point x="291.507462687" y="813.089552239"/>
      <point x="289.0" y="775.402985075"/>
      <point x="289" y="756" type="qcurve" smooth="yes"/>
      <point x="289" y="717" type="line" smooth="yes"/>
      <point x="289.0" y="692.373134328"/>
      <point x="292.014925373" y="643.895522388"/>
      <point x="295" y="623" type="qcurve"/>
      <point x="752" y="623" type="line"/>
      <point x="752" y="518" type="line"/>
      <point x="303" y="518" type="line"/>
      <point x="329.119402985" y="341.134328358"/>
      <point x="504.731343284" y="121.0"/>
      <point x="651" y="121" type="qcurve" smooth="yes"/>
      <point x="773.388059701" y="121.0"/>
      <point x="937.507462687" y="284.507462687"/>
    </contour>
  </outline>
</glyph>
<glyph name="trademark" format="1">
  <advance width="1597.44"/>
  <unicode hex="2122"/>
  <outline>
    <contour>
      <point x="1468" y="1475" type="line"/>
      <point x="1468" y="780" type="line"/>
      <point x="1364" y="780" type="line"/>
      <point x="1364" y="1370" type="line"/>
      <point x="1360" y="1370" type="line"/>
      <point x="1161" y="780" type="line"/>
      <point x="1047" y="780" type="line"/>
      <point x="848" y="1370" type="line"/>
      <point x="844" y="1370" type="line"/>
      <point x="844" y="780" type="line"/>
      <point x="739" y="780" type="line"/>
      <point x="739" y="1475" type="line"/>
      <point x="913" y="1475" type="line"/>
      <point x="1102" y="903" type="line"/>
      <point x="1108" y="903" type="line"/>
      <point x="1296" y="1475" type="line"/>
    </contour>
    <contour>
      <point x="614" y="1475" type="line"/>
      <point x="614" y="1382" type="line"/>
      <point x="397" y="1382" type="line"/>
      <point x="397" y="780" type="line"/>
      <point x="285" y="780" type="line"/>
      <point x="285" y="1382" type="line"/>
      <point x="68" y="1382" type="line"/>
      <point x="68" y="1475" type="line"/>
    </contour>
  </outline>
</glyph>
<glyph name="radical" format="1">
  <advance width="1171.456"/>
  <unicode hex="221A"/>
  <outline>
    <contour>
      <point x="920" y="1475" type="line"/>
      <point x="1116" y="1475" type="line"/>
      <point x="588" y="-6" type="line"/>
      <point x="389" y="-6" type="line"/>
      <point x="72" y="696" type="line"/>
      <point x="260" y="696" type="line"/>
      <point x="489" y="150" type="line"/>
    </contour>
  </outline>
</glyph>
<glyph name="f_f_l" format="1">
  <advance width="1779.712"/>
  <unicode hex="FB04"/>
  <outline>
    <contour>
      <point x="1327" y="1530" type="qcurve"/>
      <point x="1327" y="1395" type="line"/>
      <point x="1294.91044776" y="1409.92537313"/>
      <point x="1217.23880597" y="1430.0"/>
      <point x="1165" y="1430" type="qcurve" smooth="yes"/>
      <point x="1096.34328358" y="1430.0"/>
      <point x="1022.0" y="1347.07462687"/>
      <point x="1022" y="1262" type="qcurve" smooth="yes"/>
      <point x="1022" y="1059" type="line"/>
      <point x="1286" y="1059" type="line"/>
      <point x="1286" y="932" type="line"/>
      <point x="1022" y="932" type="line"/>
      <point x="1022" y="0" type="line"/>
      <point x="846" y="0" type="line"/>
      <point x="846" y="932" type="line"/>
      <point x="418" y="932" type="line"/>
      <point x="418" y="0" type="line"/>
      <point x="240" y="0" type="line"/>
      <point x="240" y="932" type="line"/>
      <point x="33" y="932" type="line"/>
      <point x="33" y="1059" type="line"/>
      <point x="240" y="1059" type="line"/>
      <point x="240" y="1255" type="line" smooth="yes"/>
      <point x="240.0" y="1403.50746269"/>
      <point x="396.179104478" y="1554.0"/>
      <point x="532" y="1554" type="qcurve" smooth="yes"/>
      <point x="596.179104478" y="1554.0"/>
      <point x="684.432835821" y="1540.44776119"/>
      <point x="721" y="1530" type="qcurve"/>
      <point x="721" y="1395" type="line"/>
      <point x="688.910447761" y="1409.92537313"/>
      <point x="612.731343284" y="1430.0"/>
      <point x="559" y="1430" type="qcurve" smooth="yes"/>
      <point x="490.343283582" y="1430.0"/>
      <point x="418.0" y="1347.07462687"/>
      <point x="418" y="1262" type="qcurve" smooth="yes"/>
      <point x="418" y="1059" type="line"/>
      <point x="846" y="1059" type="line"/>
      <point x="846" y="1255" type="line" smooth="yes"/>
      <point x="846.0" y="1403.50746269"/>
      <point x="1001.92537313" y="1554.0"/>
      <point x="1137" y="1554" type="qcurve" smooth="yes"/>
      <point x="1202.67164179" y="1554.0"/>
      <point x="1288.94029851" y="1540.44776119"/>
    </contour>
    <contour>
      <point x="1630" y="1556" type="line"/>
      <point x="1630" y="0" type="line"/>
      <point x="1452" y="0" type="line"/>
      <point x="1452" y="1509" type="line"/>
    </contour>
  </outline>
</glyph>
